<svg width="1107" height="58" viewBox="0 0 1107 58" fill="none" xmlns="http://www.w3.org/2000/svg">
<path d="M14.736 48.384C12.336 48.384 10.224 47.92 8.4 46.992C6.576 46.032 5.168 44.688 4.176 42.96C3.184 41.232 2.688 39.248 2.688 37.008V25.392C2.688 23.12 3.184 21.136 4.176 19.44C5.168 17.712 6.576 16.384 8.4 15.456C10.224 14.496 12.336 14.016 14.736 14.016C17.104 14.016 19.184 14.48 20.976 15.408C22.8 16.336 24.208 17.6 25.2 19.2C26.192 20.8 26.688 22.608 26.688 24.624V25.008C26.688 25.168 26.624 25.312 26.496 25.44C26.4 25.536 26.272 25.584 26.112 25.584H21.744C21.584 25.584 21.44 25.536 21.312 25.44C21.216 25.312 21.168 25.168 21.168 25.008V24.768C21.168 23.04 20.576 21.616 19.392 20.496C18.24 19.376 16.688 18.816 14.736 18.816C12.784 18.816 11.216 19.408 10.032 20.592C8.848 21.744 8.256 23.28 8.256 25.2V37.2C8.256 39.12 8.88 40.672 10.128 41.856C11.376 43.008 12.992 43.584 14.976 43.584C16.896 43.584 18.4 43.088 19.488 42.096C20.608 41.072 21.168 39.68 21.168 37.92V34.944C21.168 34.784 21.088 34.704 20.928 34.704H15.024C14.864 34.704 14.72 34.656 14.592 34.56C14.496 34.432 14.448 34.288 14.448 34.128V30.576C14.448 30.416 14.496 30.288 14.592 30.192C14.72 30.064 14.864 30 15.024 30H26.112C26.272 30 26.4 30.064 26.496 30.192C26.624 30.288 26.688 30.416 26.688 30.576V36.72C26.688 40.4 25.6 43.264 23.424 45.312C21.28 47.36 18.384 48.384 14.736 48.384ZM42.7826 48.384C40.2546 48.384 38.0786 47.744 36.2546 46.464C34.4626 45.184 33.1986 43.408 32.4626 41.136C31.9186 39.408 31.6466 37.584 31.6466 35.664C31.6466 33.616 31.9026 31.792 32.4146 30.192C33.1506 27.952 34.4306 26.208 36.2546 24.96C38.0786 23.712 40.2706 23.088 42.8306 23.088C45.2626 23.088 47.3586 23.712 49.1186 24.96C50.9106 26.208 52.1746 27.936 52.9106 30.144C53.4866 31.68 53.7746 33.504 53.7746 35.616C53.7746 37.632 53.5026 39.456 52.9586 41.088C52.2226 43.36 50.9586 45.152 49.1666 46.464C47.3746 47.744 45.2466 48.384 42.7826 48.384ZM42.7826 43.584C43.9666 43.584 44.9746 43.248 45.8066 42.576C46.6706 41.904 47.2946 40.96 47.6786 39.744C47.9986 38.688 48.1586 37.344 48.1586 35.712C48.1586 33.984 47.9986 32.64 47.6786 31.68C47.3266 30.464 46.7186 29.536 45.8546 28.896C44.9906 28.224 43.9346 27.888 42.6866 27.888C41.5026 27.888 40.4786 28.224 39.6146 28.896C38.7506 29.536 38.1266 30.464 37.7426 31.68C37.4226 32.8 37.2626 34.144 37.2626 35.712C37.2626 37.28 37.4226 38.624 37.7426 39.744C38.0946 40.96 38.7026 41.904 39.5666 42.576C40.4626 43.248 41.5346 43.584 42.7826 43.584ZM69.4545 48.384C66.9265 48.384 64.7505 47.744 62.9265 46.464C61.1345 45.184 59.8705 43.408 59.1345 41.136C58.5905 39.408 58.3185 37.584 58.3185 35.664C58.3185 33.616 58.5745 31.792 59.0865 30.192C59.8225 27.952 61.1025 26.208 62.9265 24.96C64.7505 23.712 66.9425 23.088 69.5025 23.088C71.9345 23.088 74.0305 23.712 75.7905 24.96C77.5825 26.208 78.8465 27.936 79.5825 30.144C80.1585 31.68 80.4465 33.504 80.4465 35.616C80.4465 37.632 80.1745 39.456 79.6305 41.088C78.8945 43.36 77.6305 45.152 75.8385 46.464C74.0465 47.744 71.9185 48.384 69.4545 48.384ZM69.4545 43.584C70.6385 43.584 71.6465 43.248 72.4785 42.576C73.3425 41.904 73.9665 40.96 74.3505 39.744C74.6705 38.688 74.8305 37.344 74.8305 35.712C74.8305 33.984 74.6705 32.64 74.3505 31.68C73.9985 30.464 73.3905 29.536 72.5265 28.896C71.6625 28.224 70.6065 27.888 69.3585 27.888C68.1745 27.888 67.1505 28.224 66.2865 28.896C65.4225 29.536 64.7985 30.464 64.4145 31.68C64.0945 32.8 63.9345 34.144 63.9345 35.712C63.9345 37.28 64.0945 38.624 64.4145 39.744C64.7665 40.96 65.3745 41.904 66.2385 42.576C67.1345 43.248 68.2065 43.584 69.4545 43.584ZM100.926 14.976C100.926 14.816 100.974 14.688 101.07 14.592C101.198 14.464 101.342 14.4 101.502 14.4H105.918C106.078 14.4 106.206 14.464 106.302 14.592C106.43 14.688 106.494 14.816 106.494 14.976V47.424C106.494 47.584 106.43 47.728 106.302 47.856C106.206 47.952 106.078 48 105.918 48H101.502C101.342 48 101.198 47.952 101.07 47.856C100.974 47.728 100.926 47.584 100.926 47.424V45.984C100.926 45.888 100.894 45.824 100.83 45.792C100.766 45.76 100.702 45.792 100.638 45.888C99.2304 47.552 97.3904 48.384 95.1184 48.384C92.8464 48.384 90.9264 47.792 89.3584 46.608C87.7904 45.424 86.6544 43.776 85.9504 41.664C85.3744 39.872 85.0864 37.872 85.0864 35.664C85.0864 33.392 85.3584 31.44 85.9024 29.808C86.6064 27.696 87.7424 26.048 89.3104 24.864C90.8784 23.68 92.8464 23.088 95.2144 23.088C97.4224 23.088 99.2304 23.888 100.638 25.488C100.702 25.552 100.766 25.584 100.83 25.584C100.894 25.552 100.926 25.488 100.926 25.392V14.976ZM99.7744 41.28C100.51 39.968 100.878 38.112 100.878 35.712C100.878 33.216 100.478 31.312 99.6784 30C98.8144 28.592 97.5984 27.888 96.0304 27.888C94.3984 27.888 93.1184 28.56 92.1904 29.904C91.2304 31.312 90.7504 33.264 90.7504 35.76C90.7504 38 91.1344 39.84 91.9024 41.28C92.7984 42.816 94.1584 43.584 95.9824 43.584C97.6144 43.584 98.8784 42.816 99.7744 41.28ZM148.388 23.088C150.852 23.088 152.772 23.84 154.148 25.344C155.556 26.816 156.26 28.88 156.26 31.536V47.424C156.26 47.584 156.196 47.728 156.068 47.856C155.972 47.952 155.844 48 155.684 48H151.316C151.156 48 151.012 47.952 150.884 47.856C150.788 47.728 150.74 47.584 150.74 47.424V32.688C150.74 31.216 150.34 30.048 149.54 29.184C148.772 28.32 147.732 27.888 146.42 27.888C145.108 27.888 144.036 28.32 143.204 29.184C142.372 30.048 141.956 31.2 141.956 32.64V47.424C141.956 47.584 141.892 47.728 141.764 47.856C141.668 47.952 141.54 48 141.38 48H137.012C136.852 48 136.708 47.952 136.58 47.856C136.484 47.728 136.436 47.584 136.436 47.424V32.688C136.436 31.216 136.036 30.048 135.236 29.184C134.436 28.32 133.38 27.888 132.068 27.888C130.852 27.888 129.844 28.24 129.044 28.944C128.276 29.648 127.828 30.608 127.7 31.824V47.424C127.7 47.584 127.636 47.728 127.508 47.856C127.412 47.952 127.284 48 127.124 48H122.708C122.548 48 122.404 47.952 122.276 47.856C122.18 47.728 122.132 47.584 122.132 47.424V24.048C122.132 23.888 122.18 23.76 122.276 23.664C122.404 23.536 122.548 23.472 122.708 23.472H127.124C127.284 23.472 127.412 23.536 127.508 23.664C127.636 23.76 127.7 23.888 127.7 24.048V25.632C127.7 25.728 127.732 25.792 127.796 25.824C127.86 25.856 127.924 25.824 127.988 25.728C128.692 24.832 129.556 24.176 130.58 23.76C131.636 23.312 132.804 23.088 134.084 23.088C135.652 23.088 137.028 23.408 138.212 24.048C139.396 24.688 140.308 25.616 140.948 26.832C141.044 26.96 141.156 26.96 141.284 26.832C141.988 25.552 142.964 24.608 144.212 24C145.46 23.392 146.852 23.088 148.388 23.088ZM172.158 48.384C169.63 48.384 167.454 47.744 165.63 46.464C163.838 45.184 162.574 43.408 161.838 41.136C161.294 39.408 161.022 37.584 161.022 35.664C161.022 33.616 161.278 31.792 161.79 30.192C162.526 27.952 163.806 26.208 165.63 24.96C167.454 23.712 169.646 23.088 172.206 23.088C174.638 23.088 176.734 23.712 178.494 24.96C180.286 26.208 181.55 27.936 182.286 30.144C182.862 31.68 183.15 33.504 183.15 35.616C183.15 37.632 182.878 39.456 182.334 41.088C181.598 43.36 180.334 45.152 178.542 46.464C176.75 47.744 174.622 48.384 172.158 48.384ZM172.158 43.584C173.342 43.584 174.35 43.248 175.182 42.576C176.046 41.904 176.67 40.96 177.054 39.744C177.374 38.688 177.534 37.344 177.534 35.712C177.534 33.984 177.374 32.64 177.054 31.68C176.702 30.464 176.094 29.536 175.23 28.896C174.366 28.224 173.31 27.888 172.062 27.888C170.878 27.888 169.854 28.224 168.99 28.896C168.126 29.536 167.502 30.464 167.118 31.68C166.798 32.8 166.638 34.144 166.638 35.712C166.638 37.28 166.798 38.624 167.118 39.744C167.47 40.96 168.078 41.904 168.942 42.576C169.838 43.248 170.91 43.584 172.158 43.584ZM199.838 23.184C200.862 23.184 201.758 23.392 202.526 23.808C202.782 23.936 202.878 24.176 202.814 24.528L201.998 28.848C201.966 29.232 201.742 29.344 201.326 29.184C200.846 29.024 200.286 28.944 199.646 28.944C199.23 28.944 198.91 28.96 198.686 28.992C197.342 29.056 196.222 29.536 195.326 30.432C194.43 31.296 193.982 32.432 193.982 33.84V47.424C193.982 47.584 193.918 47.728 193.79 47.856C193.694 47.952 193.566 48 193.406 48H188.99C188.83 48 188.686 47.952 188.558 47.856C188.462 47.728 188.414 47.584 188.414 47.424V24.048C188.414 23.888 188.462 23.76 188.558 23.664C188.686 23.536 188.83 23.472 188.99 23.472H193.406C193.566 23.472 193.694 23.536 193.79 23.664C193.918 23.76 193.982 23.888 193.982 24.048V26.208C193.982 26.336 193.998 26.416 194.03 26.448C194.094 26.448 194.158 26.4 194.222 26.304C195.566 24.224 197.438 23.184 199.838 23.184ZM218.22 23.088C220.812 23.088 222.876 23.856 224.412 25.392C225.98 26.928 226.764 29.024 226.764 31.68V47.424C226.764 47.584 226.7 47.728 226.572 47.856C226.476 47.952 226.348 48 226.188 48H221.772C221.612 48 221.468 47.952 221.34 47.856C221.244 47.728 221.196 47.584 221.196 47.424V32.832C221.196 31.36 220.78 30.176 219.948 29.28C219.116 28.352 218.012 27.888 216.636 27.888C215.26 27.888 214.14 28.336 213.276 29.232C212.444 30.128 212.028 31.312 212.028 32.784V47.424C212.028 47.584 211.964 47.728 211.836 47.856C211.74 47.952 211.612 48 211.452 48H207.036C206.876 48 206.732 47.952 206.604 47.856C206.508 47.728 206.46 47.584 206.46 47.424V24.048C206.46 23.888 206.508 23.76 206.604 23.664C206.732 23.536 206.876 23.472 207.036 23.472H211.452C211.612 23.472 211.74 23.536 211.836 23.664C211.964 23.76 212.028 23.888 212.028 24.048V25.584C212.028 25.68 212.06 25.744 212.124 25.776C212.188 25.808 212.236 25.776 212.268 25.68C213.58 23.952 215.564 23.088 218.22 23.088ZM235.738 20.112C234.746 20.112 233.93 19.792 233.29 19.152C232.65 18.512 232.33 17.696 232.33 16.704C232.33 15.712 232.65 14.896 233.29 14.256C233.93 13.616 234.746 13.296 235.738 13.296C236.73 13.296 237.546 13.616 238.186 14.256C238.826 14.896 239.146 15.712 239.146 16.704C239.146 17.696 238.826 18.512 238.186 19.152C237.546 19.792 236.73 20.112 235.738 20.112ZM233.434 48C233.274 48 233.13 47.952 233.002 47.856C232.906 47.728 232.858 47.584 232.858 47.424V24C232.858 23.84 232.906 23.712 233.002 23.616C233.13 23.488 233.274 23.424 233.434 23.424H237.85C238.01 23.424 238.138 23.488 238.234 23.616C238.362 23.712 238.426 23.84 238.426 24V47.424C238.426 47.584 238.362 47.728 238.234 47.856C238.138 47.952 238.01 48 237.85 48H233.434ZM256.564 23.088C259.156 23.088 261.22 23.856 262.756 25.392C264.324 26.928 265.108 29.024 265.108 31.68V47.424C265.108 47.584 265.044 47.728 264.916 47.856C264.82 47.952 264.692 48 264.532 48H260.116C259.956 48 259.812 47.952 259.684 47.856C259.588 47.728 259.54 47.584 259.54 47.424V32.832C259.54 31.36 259.124 30.176 258.292 29.28C257.46 28.352 256.356 27.888 254.98 27.888C253.604 27.888 252.484 28.336 251.62 29.232C250.788 30.128 250.372 31.312 250.372 32.784V47.424C250.372 47.584 250.308 47.728 250.18 47.856C250.084 47.952 249.956 48 249.796 48H245.38C245.22 48 245.076 47.952 244.948 47.856C244.852 47.728 244.804 47.584 244.804 47.424V24.048C244.804 23.888 244.852 23.76 244.948 23.664C245.076 23.536 245.22 23.472 245.38 23.472H249.796C249.956 23.472 250.084 23.536 250.18 23.664C250.308 23.76 250.372 23.888 250.372 24.048V25.584C250.372 25.68 250.404 25.744 250.468 25.776C250.532 25.808 250.58 25.776 250.612 25.68C251.924 23.952 253.908 23.088 256.564 23.088ZM285.938 24.048C285.938 23.888 285.986 23.76 286.082 23.664C286.21 23.536 286.354 23.472 286.514 23.472H290.93C291.09 23.472 291.218 23.536 291.314 23.664C291.442 23.76 291.506 23.888 291.506 24.048V46.368C291.506 50.368 290.354 53.216 288.05 54.912C285.778 56.64 282.786 57.504 279.074 57.504C278.082 57.504 277.106 57.456 276.146 57.36C275.794 57.328 275.618 57.12 275.618 56.736L275.762 52.8C275.762 52.448 275.986 52.272 276.434 52.272C277.362 52.368 278.194 52.416 278.93 52.416C281.33 52.416 283.09 51.936 284.21 50.976C285.362 50.048 285.938 48.464 285.938 46.224V45.84C285.938 45.744 285.906 45.696 285.842 45.696C285.778 45.664 285.714 45.68 285.65 45.744C284.338 47.152 282.482 47.856 280.082 47.856C278.002 47.856 276.098 47.328 274.37 46.272C272.642 45.216 271.442 43.6 270.77 41.424C270.354 39.92 270.146 37.984 270.146 35.616C270.146 32.96 270.402 30.928 270.914 29.52C271.554 27.568 272.658 26.016 274.226 24.864C275.794 23.68 277.634 23.088 279.746 23.088C282.274 23.088 284.242 23.824 285.65 25.296C285.714 25.392 285.778 25.424 285.842 25.392C285.906 25.36 285.938 25.296 285.938 25.2V24.048ZM285.602 39.84C285.73 39.36 285.81 38.848 285.842 38.304C285.906 37.728 285.938 36.816 285.938 35.568C285.938 34.352 285.906 33.488 285.842 32.976C285.81 32.432 285.714 31.904 285.554 31.392C285.298 30.336 284.77 29.488 283.97 28.848C283.202 28.208 282.21 27.888 280.994 27.888C279.842 27.888 278.866 28.208 278.066 28.848C277.266 29.488 276.69 30.336 276.338 31.392C275.954 32.288 275.762 33.696 275.762 35.616C275.762 37.6 275.922 38.992 276.242 39.792C276.562 40.816 277.138 41.664 277.97 42.336C278.834 42.976 279.858 43.296 281.042 43.296C282.29 43.296 283.298 42.976 284.066 42.336C284.834 41.696 285.346 40.864 285.602 39.84ZM297.209 52.368C296.825 52.368 296.649 52.16 296.681 51.744L298.457 40.992C298.489 40.64 298.697 40.464 299.081 40.464H302.921C303.337 40.464 303.497 40.672 303.401 41.088L300.569 51.888C300.473 52.208 300.249 52.368 299.897 52.368H297.209ZM329.314 48.384C326.978 48.384 324.93 47.952 323.17 47.088C321.41 46.192 320.05 44.944 319.09 43.344C318.13 41.744 317.65 39.888 317.65 37.776V34.56C317.65 34.4 317.698 34.272 317.794 34.176C317.922 34.048 318.066 33.984 318.226 33.984H322.642C322.802 33.984 322.93 34.048 323.026 34.176C323.154 34.272 323.218 34.4 323.218 34.56V37.776C323.218 39.504 323.762 40.912 324.85 42C325.97 43.056 327.458 43.584 329.314 43.584C331.106 43.584 332.578 43.056 333.73 42C334.882 40.912 335.458 39.504 335.458 37.776V14.976C335.458 14.816 335.506 14.688 335.602 14.592C335.73 14.464 335.874 14.4 336.034 14.4H340.402C340.562 14.4 340.69 14.464 340.786 14.592C340.914 14.688 340.978 14.816 340.978 14.976V37.776C340.978 39.888 340.482 41.744 339.49 43.344C338.53 44.944 337.154 46.192 335.362 47.088C333.602 47.952 331.586 48.384 329.314 48.384ZM357.876 48.384C355.348 48.384 353.172 47.744 351.348 46.464C349.556 45.184 348.292 43.408 347.556 41.136C347.012 39.408 346.74 37.584 346.74 35.664C346.74 33.616 346.996 31.792 347.508 30.192C348.244 27.952 349.524 26.208 351.348 24.96C353.172 23.712 355.364 23.088 357.924 23.088C360.356 23.088 362.452 23.712 364.212 24.96C366.004 26.208 367.268 27.936 368.004 30.144C368.58 31.68 368.868 33.504 368.868 35.616C368.868 37.632 368.596 39.456 368.052 41.088C367.316 43.36 366.052 45.152 364.26 46.464C362.468 47.744 360.34 48.384 357.876 48.384ZM357.876 43.584C359.06 43.584 360.068 43.248 360.9 42.576C361.764 41.904 362.388 40.96 362.772 39.744C363.092 38.688 363.252 37.344 363.252 35.712C363.252 33.984 363.092 32.64 362.772 31.68C362.42 30.464 361.812 29.536 360.948 28.896C360.084 28.224 359.028 27.888 357.78 27.888C356.596 27.888 355.572 28.224 354.708 28.896C353.844 29.536 353.22 30.464 352.836 31.68C352.516 32.8 352.356 34.144 352.356 35.712C352.356 37.28 352.516 38.624 352.836 39.744C353.188 40.96 353.796 41.904 354.66 42.576C355.556 43.248 356.628 43.584 357.876 43.584ZM394.82 32.976C394.948 33.776 395.012 34.672 395.012 35.664L394.964 37.152C394.964 37.536 394.772 37.728 394.388 37.728H379.364C379.204 37.728 379.124 37.808 379.124 37.968C379.22 39.024 379.364 39.744 379.556 40.128C380.324 42.432 382.196 43.6 385.172 43.632C387.348 43.632 389.076 42.736 390.356 40.944C390.484 40.752 390.644 40.656 390.836 40.656C390.964 40.656 391.076 40.704 391.172 40.8L394.148 43.248C394.436 43.472 394.484 43.728 394.292 44.016C393.3 45.424 391.972 46.512 390.308 47.28C388.676 48.048 386.852 48.432 384.836 48.432C382.34 48.432 380.212 47.872 378.452 46.752C376.724 45.632 375.46 44.064 374.66 42.048C373.924 40.32 373.556 37.92 373.556 34.848C373.556 32.992 373.748 31.488 374.132 30.336C374.772 28.096 375.972 26.336 377.732 25.056C379.524 23.744 381.668 23.088 384.164 23.088C390.468 23.088 394.02 26.384 394.82 32.976ZM384.164 27.888C382.98 27.888 381.988 28.192 381.188 28.8C380.42 29.376 379.876 30.192 379.556 31.248C379.364 31.792 379.236 32.496 379.172 33.36C379.108 33.52 379.172 33.6 379.364 33.6H389.108C389.268 33.6 389.348 33.52 389.348 33.36C389.284 32.56 389.188 31.952 389.06 31.536C388.772 30.384 388.196 29.488 387.332 28.848C386.5 28.208 385.444 27.888 384.164 27.888ZM403.557 36.672C403.397 36.672 403.253 36.624 403.125 36.528C403.029 36.4 402.981 36.256 402.981 36.096L402.453 14.976C402.453 14.816 402.501 14.688 402.597 14.592C402.725 14.464 402.869 14.4 403.029 14.4H407.445C407.605 14.4 407.733 14.464 407.829 14.592C407.957 14.688 408.021 14.816 408.021 14.976L407.493 36.096C407.493 36.256 407.429 36.4 407.301 36.528C407.205 36.624 407.077 36.672 406.917 36.672H403.557ZM404.949 47.904C403.957 47.904 403.141 47.584 402.501 46.944C401.893 46.304 401.589 45.488 401.589 44.496C401.589 43.504 401.893 42.704 402.501 42.096C403.141 41.456 403.957 41.136 404.949 41.136C405.941 41.136 406.757 41.456 407.397 42.096C408.037 42.704 408.357 43.504 408.357 44.496C408.357 45.488 408.037 46.304 407.397 46.944C406.757 47.584 405.941 47.904 404.949 47.904Z" fill="#080808"/>
<path d="M951.409 34.5V22.8636H952.818V28.0455H959.023V22.8636H960.432V34.5H959.023V29.2955H952.818V34.5H951.409ZM966.73 34.6818C965.889 34.6818 965.164 34.4962 964.554 34.125C963.948 33.75 963.48 33.2273 963.151 32.5568C962.825 31.8826 962.662 31.0985 962.662 30.2045C962.662 29.3106 962.825 28.5227 963.151 27.8409C963.48 27.1553 963.938 26.6212 964.526 26.2386C965.116 25.8523 965.806 25.6591 966.594 25.6591C967.048 25.6591 967.497 25.7348 967.94 25.8864C968.384 26.0379 968.787 26.2841 969.151 26.625C969.514 26.9621 969.804 27.4091 970.02 27.9659C970.236 28.5227 970.344 29.2083 970.344 30.0227V30.5909H963.616V29.4318H968.98C968.98 28.9394 968.882 28.5 968.685 28.1136C968.491 27.7273 968.215 27.4223 967.855 27.1989C967.499 26.9754 967.079 26.8636 966.594 26.8636C966.06 26.8636 965.598 26.9962 965.207 27.2614C964.821 27.5227 964.524 27.8636 964.315 28.2841C964.107 28.7045 964.003 29.1553 964.003 29.6364V30.4091C964.003 31.0682 964.116 31.6269 964.344 32.0852C964.575 32.5398 964.895 32.8864 965.304 33.125C965.713 33.3598 966.188 33.4773 966.73 33.4773C967.082 33.4773 967.401 33.428 967.685 33.3295C967.973 33.2273 968.221 33.0758 968.429 32.875C968.637 32.6705 968.798 32.4167 968.912 32.1136L970.207 32.4773C970.071 32.9167 969.842 33.303 969.52 33.6364C969.198 33.9659 968.8 34.2235 968.327 34.4091C967.853 34.5909 967.321 34.6818 966.73 34.6818ZM973.724 22.8636V34.5H972.384V22.8636H973.724ZM976.18 37.7727V25.7727H977.476V27.1591H977.635C977.733 27.0076 977.87 26.8144 978.044 26.5795C978.222 26.3409 978.476 26.1288 978.805 25.9432C979.139 25.7538 979.589 25.6591 980.158 25.6591C980.893 25.6591 981.54 25.8428 982.101 26.2102C982.661 26.5777 983.099 27.0985 983.413 27.7727C983.728 28.447 983.885 29.2424 983.885 30.1591C983.885 31.0833 983.728 31.8845 983.413 32.5625C983.099 33.2367 982.663 33.7595 982.107 34.1307C981.55 34.4981 980.908 34.6818 980.18 34.6818C979.62 34.6818 979.171 34.589 978.834 34.4034C978.497 34.214 978.237 34 978.055 33.7614C977.874 33.5189 977.733 33.3182 977.635 33.1591H977.521V37.7727H976.18ZM977.499 30.1364C977.499 30.7955 977.595 31.3769 977.788 31.8807C977.982 32.3807 978.264 32.7727 978.635 33.0568C979.006 33.3371 979.461 33.4773 979.999 33.4773C980.559 33.4773 981.027 33.3295 981.402 33.0341C981.781 32.7348 982.065 32.3333 982.254 31.8295C982.447 31.322 982.544 30.7576 982.544 30.1364C982.544 29.5227 982.449 28.9697 982.26 28.4773C982.074 27.9811 981.792 27.589 981.413 27.3011C981.038 27.0095 980.567 26.8636 979.999 26.8636C979.453 26.8636 978.995 27.0019 978.624 27.2784C978.252 27.5511 977.972 27.9337 977.783 28.4261C977.593 28.9148 977.499 29.4848 977.499 30.1364ZM993.726 34.6591C992.961 34.6591 992.302 34.5189 991.749 34.2386C991.196 33.9583 990.769 33.5739 990.47 33.0852C990.171 32.5966 990.021 32.0379 990.021 31.4091C990.021 30.9242 990.124 30.4943 990.328 30.1193C990.536 29.7405 990.822 29.3902 991.186 29.0682C991.554 28.7424 991.976 28.4167 992.453 28.0909L994.135 26.8409C994.464 26.625 994.728 26.3939 994.925 26.1477C995.125 25.9015 995.226 25.5795 995.226 25.1818C995.226 24.8864 995.095 24.6004 994.834 24.3239C994.576 24.0473 994.237 23.9091 993.817 23.9091C993.521 23.9091 993.26 23.9848 993.033 24.1364C992.809 24.2841 992.633 24.4735 992.504 24.7045C992.379 24.9318 992.317 25.1667 992.317 25.4091C992.317 25.6818 992.391 25.9583 992.538 26.2386C992.69 26.5152 992.881 26.7992 993.112 27.0909C993.347 27.3788 993.589 27.6742 993.839 27.9773L999.18 34.5H997.567L993.158 29.1818C992.749 28.6894 992.377 28.2424 992.044 27.8409C991.711 27.4394 991.446 27.0436 991.249 26.6534C991.052 26.2633 990.953 25.8409 990.953 25.3864C990.953 24.8636 991.069 24.4053 991.3 24.0114C991.535 23.6136 991.862 23.3049 992.283 23.0852C992.707 22.8617 993.203 22.75 993.771 22.75C994.355 22.75 994.857 22.8636 995.277 23.0909C995.697 23.3144 996.021 23.6117 996.249 23.983C996.476 24.3504 996.589 24.75 996.589 25.1818C996.589 25.7386 996.451 26.2216 996.175 26.6307C995.898 27.0398 995.521 27.4205 995.044 27.7727L992.726 29.5C992.203 29.8864 991.849 30.2614 991.663 30.625C991.478 30.9886 991.385 31.25 991.385 31.4091C991.385 31.7727 991.48 32.1117 991.669 32.4261C991.858 32.7405 992.125 32.9943 992.47 33.1875C992.815 33.3807 993.218 33.4773 993.68 33.4773C994.12 33.4773 994.548 33.3845 994.964 33.1989C995.381 33.0095 995.758 32.7367 996.095 32.3807C996.436 32.0246 996.705 31.5966 996.902 31.0966C997.103 30.5966 997.203 30.0341 997.203 29.4091H998.499C998.499 30.1818 998.41 30.8125 998.232 31.3011C998.054 31.7898 997.853 32.1723 997.629 32.4489C997.406 32.7254 997.226 32.9318 997.089 33.0682C997.044 33.125 997.002 33.1818 996.964 33.2386C996.927 33.2955 996.885 33.3523 996.839 33.4091C996.464 33.8295 995.991 34.1439 995.419 34.3523C994.847 34.5568 994.283 34.6591 993.726 34.6591ZM1009.05 25.7727V26.9091H1004.35V25.7727H1009.05ZM1005.76 34.5V24.5682C1005.76 24.0682 1005.87 23.6515 1006.11 23.3182C1006.34 22.9848 1006.65 22.7348 1007.02 22.5682C1007.4 22.4015 1007.79 22.3182 1008.21 22.3182C1008.54 22.3182 1008.81 22.3447 1009.02 22.3977C1009.23 22.4508 1009.38 22.5 1009.48 22.5455L1009.1 23.7045C1009.03 23.6818 1008.93 23.6534 1008.81 23.6193C1008.7 23.5852 1008.54 23.5682 1008.35 23.5682C1007.9 23.5682 1007.58 23.6799 1007.39 23.9034C1007.19 24.1269 1007.1 24.4545 1007.1 24.8864V34.5H1005.76ZM1014.23 34.6818C1013.39 34.6818 1012.66 34.4962 1012.05 34.125C1011.45 33.75 1010.98 33.2273 1010.65 32.5568C1010.32 31.8826 1010.16 31.0985 1010.16 30.2045C1010.16 29.3106 1010.32 28.5227 1010.65 27.8409C1010.98 27.1553 1011.44 26.6212 1012.03 26.2386C1012.62 25.8523 1013.31 25.6591 1014.09 25.6591C1014.55 25.6591 1015 25.7348 1015.44 25.8864C1015.88 26.0379 1016.29 26.2841 1016.65 26.625C1017.01 26.9621 1017.3 27.4091 1017.52 27.9659C1017.74 28.5227 1017.84 29.2083 1017.84 30.0227V30.5909H1011.12V29.4318H1016.48C1016.48 28.9394 1016.38 28.5 1016.18 28.1136C1015.99 27.7273 1015.71 27.4223 1015.36 27.1989C1015 26.9754 1014.58 26.8636 1014.09 26.8636C1013.56 26.8636 1013.1 26.9962 1012.71 27.2614C1012.32 27.5227 1012.02 27.8636 1011.82 28.2841C1011.61 28.7045 1011.5 29.1553 1011.5 29.6364V30.4091C1011.5 31.0682 1011.62 31.6269 1011.84 32.0852C1012.07 32.5398 1012.39 32.8864 1012.8 33.125C1013.21 33.3598 1013.69 33.4773 1014.23 33.4773C1014.58 33.4773 1014.9 33.428 1015.18 33.3295C1015.47 33.2273 1015.72 33.0758 1015.93 32.875C1016.14 32.6705 1016.3 32.4167 1016.41 32.1136L1017.71 32.4773C1017.57 32.9167 1017.34 33.303 1017.02 33.6364C1016.7 33.9659 1016.3 34.2235 1015.83 34.4091C1015.35 34.5909 1014.82 34.6818 1014.23 34.6818ZM1023.54 34.6818C1022.7 34.6818 1021.98 34.4962 1021.37 34.125C1020.76 33.75 1020.29 33.2273 1019.96 32.5568C1019.64 31.8826 1019.47 31.0985 1019.47 30.2045C1019.47 29.3106 1019.64 28.5227 1019.96 27.8409C1020.29 27.1553 1020.75 26.6212 1021.34 26.2386C1021.93 25.8523 1022.62 25.6591 1023.41 25.6591C1023.86 25.6591 1024.31 25.7348 1024.75 25.8864C1025.2 26.0379 1025.6 26.2841 1025.96 26.625C1026.33 26.9621 1026.62 27.4091 1026.83 27.9659C1027.05 28.5227 1027.16 29.2083 1027.16 30.0227V30.5909H1020.43V29.4318H1025.79C1025.79 28.9394 1025.69 28.5 1025.5 28.1136C1025.3 27.7273 1025.03 27.4223 1024.67 27.1989C1024.31 26.9754 1023.89 26.8636 1023.41 26.8636C1022.87 26.8636 1022.41 26.9962 1022.02 27.2614C1021.63 27.5227 1021.34 27.8636 1021.13 28.2841C1020.92 28.7045 1020.82 29.1553 1020.82 29.6364V30.4091C1020.82 31.0682 1020.93 31.6269 1021.16 32.0852C1021.39 32.5398 1021.71 32.8864 1022.12 33.125C1022.53 33.3598 1023 33.4773 1023.54 33.4773C1023.89 33.4773 1024.21 33.428 1024.5 33.3295C1024.79 33.2273 1025.03 33.0758 1025.24 32.875C1025.45 32.6705 1025.61 32.4167 1025.72 32.1136L1027.02 32.4773C1026.88 32.9167 1026.65 33.303 1026.33 33.6364C1026.01 33.9659 1025.61 34.2235 1025.14 34.4091C1024.67 34.5909 1024.13 34.6818 1023.54 34.6818ZM1032.49 34.6818C1031.76 34.6818 1031.12 34.4981 1030.57 34.1307C1030.01 33.7595 1029.57 33.2367 1029.26 32.5625C1028.94 31.8845 1028.79 31.0833 1028.79 30.1591C1028.79 29.2424 1028.94 28.447 1029.26 27.7727C1029.57 27.0985 1030.01 26.5777 1030.57 26.2102C1031.13 25.8428 1031.78 25.6591 1032.51 25.6591C1033.08 25.6591 1033.53 25.7538 1033.86 25.9432C1034.19 26.1288 1034.45 26.3409 1034.62 26.5795C1034.8 26.8144 1034.94 27.0076 1035.04 27.1591H1035.15V22.8636H1036.49V34.5H1035.2V33.1591H1035.04C1034.94 33.3182 1034.8 33.5189 1034.62 33.7614C1034.43 34 1034.18 34.214 1033.84 34.4034C1033.5 34.589 1033.05 34.6818 1032.49 34.6818ZM1032.67 33.4773C1033.21 33.4773 1033.67 33.3371 1034.04 33.0568C1034.41 32.7727 1034.69 32.3807 1034.88 31.8807C1035.08 31.3769 1035.17 30.7955 1035.17 30.1364C1035.17 29.4848 1035.08 28.9148 1034.89 28.4261C1034.7 27.9337 1034.42 27.5511 1034.05 27.2784C1033.68 27.0019 1033.22 26.8636 1032.67 26.8636C1032.11 26.8636 1031.63 27.0095 1031.25 27.3011C1030.88 27.589 1030.6 27.9811 1030.41 28.4773C1030.22 28.9697 1030.13 29.5227 1030.13 30.1364C1030.13 30.7576 1030.22 31.322 1030.41 31.8295C1030.61 32.3333 1030.89 32.7348 1031.26 33.0341C1031.64 33.3295 1032.11 33.4773 1032.67 33.4773ZM1039.32 34.5V22.8636H1040.66V27.1591H1040.77C1040.87 27.0076 1041 26.8144 1041.18 26.5795C1041.36 26.3409 1041.61 26.1288 1041.94 25.9432C1042.27 25.7538 1042.72 25.6591 1043.29 25.6591C1044.03 25.6591 1044.68 25.8428 1045.24 26.2102C1045.8 26.5777 1046.23 27.0985 1046.55 27.7727C1046.86 28.447 1047.02 29.2424 1047.02 30.1591C1047.02 31.0833 1046.86 31.8845 1046.55 32.5625C1046.23 33.2367 1045.8 33.7595 1045.24 34.1307C1044.68 34.4981 1044.04 34.6818 1043.32 34.6818C1042.75 34.6818 1042.31 34.589 1041.97 34.4034C1041.63 34.214 1041.37 34 1041.19 33.7614C1041.01 33.5189 1040.87 33.3182 1040.77 33.1591H1040.61V34.5H1039.32ZM1040.63 30.1364C1040.63 30.7955 1040.73 31.3769 1040.92 31.8807C1041.12 32.3807 1041.4 32.7727 1041.77 33.0568C1042.14 33.3371 1042.6 33.4773 1043.13 33.4773C1043.69 33.4773 1044.16 33.3295 1044.54 33.0341C1044.92 32.7348 1045.2 32.3333 1045.39 31.8295C1045.58 31.322 1045.68 30.7576 1045.68 30.1364C1045.68 29.5227 1045.58 28.9697 1045.39 28.4773C1045.21 27.9811 1044.93 27.589 1044.55 27.3011C1044.17 27.0095 1043.7 26.8636 1043.13 26.8636C1042.59 26.8636 1042.13 27.0019 1041.76 27.2784C1041.39 27.5511 1041.11 27.9337 1040.92 28.4261C1040.73 28.9148 1040.63 29.4848 1040.63 30.1364ZM1051.64 34.7045C1051.09 34.7045 1050.58 34.6004 1050.13 34.392C1049.68 34.1799 1049.32 33.875 1049.06 33.4773C1048.79 33.0758 1048.66 32.5909 1048.66 32.0227C1048.66 31.5227 1048.76 31.1174 1048.96 30.8068C1049.15 30.4924 1049.42 30.2462 1049.75 30.0682C1050.08 29.8902 1050.44 29.7576 1050.84 29.6705C1051.24 29.5795 1051.64 29.5076 1052.05 29.4545C1052.58 29.3864 1053.01 29.3352 1053.34 29.3011C1053.67 29.2633 1053.91 29.2008 1054.07 29.1136C1054.22 29.0265 1054.3 28.875 1054.3 28.6591V28.6136C1054.3 28.053 1054.14 27.6174 1053.84 27.3068C1053.54 26.9962 1053.07 26.8409 1052.46 26.8409C1051.82 26.8409 1051.32 26.9811 1050.95 27.2614C1050.59 27.5417 1050.33 27.8409 1050.18 28.1591L1048.91 27.7045C1049.14 27.1742 1049.44 26.7614 1049.82 26.4659C1050.2 26.1667 1050.62 25.9583 1051.07 25.8409C1051.53 25.7197 1051.97 25.6591 1052.41 25.6591C1052.69 25.6591 1053.01 25.6932 1053.38 25.7614C1053.75 25.8258 1054.1 25.9602 1054.44 26.1648C1054.79 26.3693 1055.07 26.678 1055.3 27.0909C1055.53 27.5038 1055.64 28.0568 1055.64 28.75V34.5H1054.3V33.3182H1054.23C1054.14 33.5076 1053.99 33.7102 1053.78 33.9261C1053.56 34.142 1053.28 34.3258 1052.93 34.4773C1052.58 34.6288 1052.15 34.7045 1051.64 34.7045ZM1051.84 33.5C1052.37 33.5 1052.82 33.3958 1053.18 33.1875C1053.55 32.9792 1053.83 32.7102 1054.01 32.3807C1054.2 32.0511 1054.3 31.7045 1054.3 31.3409V30.1136C1054.24 30.1818 1054.12 30.2443 1053.92 30.3011C1053.73 30.3542 1053.51 30.4015 1053.26 30.4432C1053.02 30.4811 1052.78 30.5152 1052.54 30.5455C1052.31 30.572 1052.12 30.5947 1051.98 30.6136C1051.63 30.6591 1051.31 30.733 1051 30.8352C1050.7 30.9337 1050.46 31.0833 1050.28 31.2841C1050.09 31.4811 1050 31.75 1050 32.0909C1050 32.5568 1050.18 32.9091 1050.52 33.1477C1050.87 33.3826 1051.31 33.5 1051.84 33.5ZM1061.63 34.6818C1060.81 34.6818 1060.11 34.4886 1059.52 34.1023C1058.93 33.7159 1058.47 33.1837 1058.15 32.5057C1057.84 31.8277 1057.68 31.053 1057.68 30.1818C1057.68 29.2955 1057.84 28.5133 1058.17 27.8352C1058.5 27.1534 1058.95 26.6212 1059.54 26.2386C1060.13 25.8523 1060.82 25.6591 1061.61 25.6591C1062.22 25.6591 1062.78 25.7727 1063.27 26C1063.76 26.2273 1064.16 26.5455 1064.48 26.9545C1064.79 27.3636 1064.99 27.8409 1065.06 28.3864H1063.72C1063.62 27.9886 1063.39 27.6364 1063.04 27.3295C1062.69 27.0189 1062.22 26.8636 1061.63 26.8636C1061.11 26.8636 1060.65 27 1060.26 27.2727C1059.87 27.5417 1059.56 27.9223 1059.34 28.4148C1059.13 28.9034 1059.02 29.4773 1059.02 30.1364C1059.02 30.8106 1059.12 31.3977 1059.34 31.8977C1059.55 32.3977 1059.86 32.786 1060.25 33.0625C1060.64 33.339 1061.1 33.4773 1061.63 33.4773C1061.98 33.4773 1062.3 33.4167 1062.58 33.2955C1062.87 33.1742 1063.11 33 1063.3 32.7727C1063.5 32.5455 1063.64 32.2727 1063.72 31.9545H1065.06C1064.99 32.4697 1064.8 32.9337 1064.5 33.3466C1064.21 33.7557 1063.81 34.0814 1063.33 34.3239C1062.84 34.5625 1062.28 34.6818 1061.63 34.6818ZM1068.27 31.3182L1068.25 29.6591H1068.52L1072.34 25.7727H1074L1069.93 29.8864H1069.82L1068.27 31.3182ZM1067.02 34.5V22.8636H1068.37V34.5H1067.02ZM1072.57 34.5L1069.16 30.1818L1070.12 29.25L1074.27 34.5H1072.57Z" fill="#080808"/>
<path d="M1095 39C1100.52 39 1105 34.5228 1105 29C1105 23.4771 1100.52 19 1095 19C1089.48 19 1085 23.4771 1085 29C1085 34.5228 1089.48 39 1095 39Z" stroke="#080808" stroke-width="1.5" stroke-linecap="round" stroke-linejoin="round"/>
<path d="M1092 26C1092 22.5 1097.5 22.5 1097.5 26C1097.5 28.5 1095 27.9999 1095 30.9999" stroke="#080808" stroke-width="1.5" stroke-linecap="round" stroke-linejoin="round"/>
<path d="M1095 35.0099L1095.01 34.9988" stroke="#080808" stroke-width="1.5" stroke-linecap="round" stroke-linejoin="round"/>
</svg>
