<svg width="157" height="24" viewBox="0 0 157 24" fill="none" xmlns="http://www.w3.org/2000/svg">
<path d="M1.40909 17.5V5.86364H2.81818V11.0455H9.02273V5.86364H10.4318V17.5H9.02273V12.2955H2.81818V17.5H1.40909ZM16.7301 17.6818C15.8892 17.6818 15.1638 17.4962 14.554 17.125C13.9479 16.75 13.4801 16.2273 13.1506 15.5568C12.8248 14.8826 12.6619 14.0985 12.6619 13.2045C12.6619 12.3106 12.8248 11.5227 13.1506 10.8409C13.4801 10.1553 13.9384 9.62121 14.5256 9.23864C15.1165 8.85227 15.8059 8.65909 16.5938 8.65909C17.0483 8.65909 17.4972 8.73485 17.9403 8.88636C18.3835 9.03788 18.7869 9.28409 19.1506 9.625C19.5142 9.96212 19.804 10.4091 20.0199 10.9659C20.2358 11.5227 20.3438 12.2083 20.3438 13.0227V13.5909H13.6165V12.4318H18.9801C18.9801 11.9394 18.8816 11.5 18.6847 11.1136C18.4915 10.7273 18.215 10.4223 17.8551 10.1989C17.4991 9.97538 17.0786 9.86364 16.5938 9.86364C16.0597 9.86364 15.5975 9.99621 15.2074 10.2614C14.821 10.5227 14.5237 10.8636 14.3153 11.2841C14.107 11.7045 14.0028 12.1553 14.0028 12.6364V13.4091C14.0028 14.0682 14.1165 14.6269 14.3438 15.0852C14.5748 15.5398 14.8949 15.8864 15.304 16.125C15.7131 16.3598 16.1884 16.4773 16.7301 16.4773C17.0824 16.4773 17.4006 16.428 17.6847 16.3295C17.9725 16.2273 18.2206 16.0758 18.429 15.875C18.6373 15.6705 18.7983 15.4167 18.9119 15.1136L20.2074 15.4773C20.071 15.9167 19.8419 16.303 19.5199 16.6364C19.1979 16.9659 18.8002 17.2235 18.3267 17.4091C17.8532 17.5909 17.321 17.6818 16.7301 17.6818ZM23.7244 5.86364V17.5H22.3835V5.86364H23.7244ZM26.1804 20.7727V8.77273H27.4759V10.1591H27.6349C27.7334 10.0076 27.8698 9.81439 28.044 9.57955C28.2221 9.34091 28.4759 9.12879 28.8054 8.94318C29.1387 8.75379 29.5895 8.65909 30.1577 8.65909C30.8925 8.65909 31.5402 8.8428 32.1009 9.21023C32.6615 9.57765 33.099 10.0985 33.4134 10.7727C33.7277 11.447 33.8849 12.2424 33.8849 13.1591C33.8849 14.0833 33.7277 14.8845 33.4134 15.5625C33.099 16.2367 32.6634 16.7595 32.1065 17.1307C31.5497 17.4981 30.9077 17.6818 30.1804 17.6818C29.6198 17.6818 29.1709 17.589 28.8338 17.4034C28.4967 17.214 28.2372 17 28.0554 16.7614C27.8736 16.5189 27.7334 16.3182 27.6349 16.1591H27.5213V20.7727H26.1804ZM27.4986 13.1364C27.4986 13.7955 27.5952 14.3769 27.7884 14.8807C27.9815 15.3807 28.2637 15.7727 28.6349 16.0568C29.0062 16.3371 29.4607 16.4773 29.9986 16.4773C30.5592 16.4773 31.027 16.3295 31.402 16.0341C31.7808 15.7348 32.0649 15.3333 32.2543 14.8295C32.4474 14.322 32.544 13.7576 32.544 13.1364C32.544 12.5227 32.4493 11.9697 32.2599 11.4773C32.0743 10.9811 31.7921 10.589 31.4134 10.3011C31.0384 10.0095 30.5668 9.86364 29.9986 9.86364C29.4531 9.86364 28.9948 10.0019 28.6236 10.2784C28.2524 10.5511 27.9721 10.9337 27.7827 11.4261C27.5933 11.9148 27.4986 12.4848 27.4986 13.1364ZM43.7259 17.6591C42.9607 17.6591 42.3016 17.5189 41.7486 17.2386C41.1955 16.9583 40.7694 16.5739 40.4702 16.0852C40.1709 15.5966 40.0213 15.0379 40.0213 14.4091C40.0213 13.9242 40.1236 13.4943 40.3281 13.1193C40.5365 12.7405 40.8224 12.3902 41.1861 12.0682C41.5535 11.7424 41.9759 11.4167 42.4531 11.0909L44.1349 9.84091C44.4645 9.625 44.7277 9.39394 44.9247 9.14773C45.1255 8.90152 45.2259 8.57955 45.2259 8.18182C45.2259 7.88636 45.0952 7.60038 44.8338 7.32386C44.5762 7.04735 44.2372 6.90909 43.8168 6.90909C43.5213 6.90909 43.2599 6.98485 43.0327 7.13636C42.8092 7.28409 42.633 7.47348 42.5043 7.70455C42.3793 7.93182 42.3168 8.16667 42.3168 8.40909C42.3168 8.68182 42.3906 8.95833 42.5384 9.23864C42.6899 9.51515 42.8812 9.79924 43.1122 10.0909C43.3471 10.3788 43.5895 10.6742 43.8395 10.9773L49.1804 17.5H47.5668L43.1577 12.1818C42.7486 11.6894 42.3774 11.2424 42.044 10.8409C41.7107 10.4394 41.4455 10.0436 41.2486 9.65341C41.0516 9.26326 40.9531 8.84091 40.9531 8.38636C40.9531 7.86364 41.0687 7.4053 41.2997 7.01136C41.5346 6.61364 41.8622 6.30492 42.2827 6.08523C42.7069 5.86174 43.2031 5.75 43.7713 5.75C44.3546 5.75 44.8565 5.86364 45.277 6.09091C45.6974 6.31439 46.0213 6.61174 46.2486 6.98295C46.4759 7.35038 46.5895 7.75 46.5895 8.18182C46.5895 8.73864 46.4512 9.22159 46.1747 9.63068C45.8982 10.0398 45.5213 10.4205 45.044 10.7727L42.7259 12.5C42.2031 12.8864 41.849 13.2614 41.6634 13.625C41.4777 13.9886 41.3849 14.25 41.3849 14.4091C41.3849 14.7727 41.4796 15.1117 41.669 15.4261C41.8584 15.7405 42.1255 15.9943 42.4702 16.1875C42.8149 16.3807 43.2183 16.4773 43.6804 16.4773C44.1198 16.4773 44.5478 16.3845 44.9645 16.1989C45.3812 16.0095 45.758 15.7367 46.0952 15.3807C46.4361 15.0246 46.705 14.5966 46.902 14.0966C47.1027 13.5966 47.2031 13.0341 47.2031 12.4091H48.4986C48.4986 13.1818 48.4096 13.8125 48.2315 14.3011C48.0535 14.7898 47.8527 15.1723 47.6293 15.4489C47.4058 15.7254 47.2259 15.9318 47.0895 16.0682C47.044 16.125 47.0024 16.1818 46.9645 16.2386C46.9266 16.2955 46.8849 16.3523 46.8395 16.4091C46.4645 16.8295 45.991 17.1439 45.419 17.3523C44.8471 17.5568 44.2827 17.6591 43.7259 17.6591ZM59.0511 8.77273V9.90909H54.3466V8.77273H59.0511ZM55.7557 17.5V7.56818C55.7557 7.06818 55.8731 6.65151 56.108 6.31818C56.3428 5.98485 56.6477 5.73485 57.0227 5.56818C57.3977 5.40151 57.7936 5.31818 58.2102 5.31818C58.5398 5.31818 58.8087 5.3447 59.017 5.39773C59.2254 5.45076 59.3807 5.5 59.483 5.54545L59.0966 6.70455C59.0284 6.68182 58.9337 6.65341 58.8125 6.61932C58.6951 6.58523 58.5398 6.56818 58.3466 6.56818C57.9034 6.56818 57.5833 6.67992 57.3864 6.90341C57.1932 7.12689 57.0966 7.45455 57.0966 7.88636V17.5H55.7557ZM64.2301 17.6818C63.3892 17.6818 62.6638 17.4962 62.054 17.125C61.4479 16.75 60.9801 16.2273 60.6506 15.5568C60.3248 14.8826 60.1619 14.0985 60.1619 13.2045C60.1619 12.3106 60.3248 11.5227 60.6506 10.8409C60.9801 10.1553 61.4384 9.62121 62.0256 9.23864C62.6165 8.85227 63.3059 8.65909 64.0938 8.65909C64.5483 8.65909 64.9972 8.73485 65.4403 8.88636C65.8835 9.03788 66.2869 9.28409 66.6506 9.625C67.0142 9.96212 67.304 10.4091 67.5199 10.9659C67.7358 11.5227 67.8438 12.2083 67.8438 13.0227V13.5909H61.1165V12.4318H66.4801C66.4801 11.9394 66.3816 11.5 66.1847 11.1136C65.9915 10.7273 65.715 10.4223 65.3551 10.1989C64.9991 9.97538 64.5786 9.86364 64.0938 9.86364C63.5597 9.86364 63.0975 9.99621 62.7074 10.2614C62.321 10.5227 62.0237 10.8636 61.8153 11.2841C61.607 11.7045 61.5028 12.1553 61.5028 12.6364V13.4091C61.5028 14.0682 61.6165 14.6269 61.8438 15.0852C62.0748 15.5398 62.3949 15.8864 62.804 16.125C63.2131 16.3598 63.6884 16.4773 64.2301 16.4773C64.5824 16.4773 64.9006 16.428 65.1847 16.3295C65.4725 16.2273 65.7206 16.0758 65.929 15.875C66.1373 15.6705 66.2983 15.4167 66.4119 15.1136L67.7074 15.4773C67.571 15.9167 67.3419 16.303 67.0199 16.6364C66.6979 16.9659 66.3002 17.2235 65.8267 17.4091C65.3532 17.5909 64.821 17.6818 64.2301 17.6818ZM73.5426 17.6818C72.7017 17.6818 71.9763 17.4962 71.3665 17.125C70.7604 16.75 70.2926 16.2273 69.9631 15.5568C69.6373 14.8826 69.4744 14.0985 69.4744 13.2045C69.4744 12.3106 69.6373 11.5227 69.9631 10.8409C70.2926 10.1553 70.7509 9.62121 71.3381 9.23864C71.929 8.85227 72.6184 8.65909 73.4062 8.65909C73.8608 8.65909 74.3097 8.73485 74.7528 8.88636C75.196 9.03788 75.5994 9.28409 75.9631 9.625C76.3267 9.96212 76.6165 10.4091 76.8324 10.9659C77.0483 11.5227 77.1562 12.2083 77.1562 13.0227V13.5909H70.429V12.4318H75.7926C75.7926 11.9394 75.6941 11.5 75.4972 11.1136C75.304 10.7273 75.0275 10.4223 74.6676 10.1989C74.3116 9.97538 73.8911 9.86364 73.4062 9.86364C72.8722 9.86364 72.41 9.99621 72.0199 10.2614C71.6335 10.5227 71.3362 10.8636 71.1278 11.2841C70.9195 11.7045 70.8153 12.1553 70.8153 12.6364V13.4091C70.8153 14.0682 70.929 14.6269 71.1562 15.0852C71.3873 15.5398 71.7074 15.8864 72.1165 16.125C72.5256 16.3598 73.0009 16.4773 73.5426 16.4773C73.8949 16.4773 74.2131 16.428 74.4972 16.3295C74.785 16.2273 75.0331 16.0758 75.2415 15.875C75.4498 15.6705 75.6108 15.4167 75.7244 15.1136L77.0199 15.4773C76.8835 15.9167 76.6544 16.303 76.3324 16.6364C76.0104 16.9659 75.6127 17.2235 75.1392 17.4091C74.6657 17.5909 74.1335 17.6818 73.5426 17.6818ZM82.4915 17.6818C81.7642 17.6818 81.1222 17.4981 80.5653 17.1307C80.0085 16.7595 79.5729 16.2367 79.2585 15.5625C78.9441 14.8845 78.7869 14.0833 78.7869 13.1591C78.7869 12.2424 78.9441 11.447 79.2585 10.7727C79.5729 10.0985 80.0104 9.57765 80.571 9.21023C81.1316 8.8428 81.7794 8.65909 82.5142 8.65909C83.0824 8.65909 83.5313 8.75379 83.8608 8.94318C84.1941 9.12879 84.4479 9.34091 84.6222 9.57955C84.8002 9.81439 84.9384 10.0076 85.0369 10.1591H85.1506V5.86364H86.4915V17.5H85.196V16.1591H85.0369C84.9384 16.3182 84.7983 16.5189 84.6165 16.7614C84.4347 17 84.1752 17.214 83.8381 17.4034C83.5009 17.589 83.0521 17.6818 82.4915 17.6818ZM82.6733 16.4773C83.2112 16.4773 83.6657 16.3371 84.0369 16.0568C84.4081 15.7727 84.6903 15.3807 84.8835 14.8807C85.0767 14.3769 85.1733 13.7955 85.1733 13.1364C85.1733 12.4848 85.0786 11.9148 84.8892 11.4261C84.6998 10.9337 84.4195 10.5511 84.0483 10.2784C83.6771 10.0019 83.2188 9.86364 82.6733 9.86364C82.1051 9.86364 81.6316 10.0095 81.2528 10.3011C80.8778 10.589 80.5956 10.9811 80.4062 11.4773C80.2206 11.9697 80.1278 12.5227 80.1278 13.1364C80.1278 13.7576 80.2225 14.322 80.4119 14.8295C80.6051 15.3333 80.8892 15.7348 81.2642 16.0341C81.643 16.3295 82.1127 16.4773 82.6733 16.4773ZM89.3153 17.5V5.86364H90.6562V10.1591H90.7699C90.8684 10.0076 91.0047 9.81439 91.179 9.57955C91.357 9.34091 91.6108 9.12879 91.9403 8.94318C92.2737 8.75379 92.7244 8.65909 93.2926 8.65909C94.0275 8.65909 94.6752 8.8428 95.2358 9.21023C95.7964 9.57765 96.2339 10.0985 96.5483 10.7727C96.8627 11.447 97.0199 12.2424 97.0199 13.1591C97.0199 14.0833 96.8627 14.8845 96.5483 15.5625C96.2339 16.2367 95.7983 16.7595 95.2415 17.1307C94.6847 17.4981 94.0426 17.6818 93.3153 17.6818C92.7547 17.6818 92.3059 17.589 91.9688 17.4034C91.6316 17.214 91.3722 17 91.1903 16.7614C91.0085 16.5189 90.8684 16.3182 90.7699 16.1591H90.6108V17.5H89.3153ZM90.6335 13.1364C90.6335 13.7955 90.7301 14.3769 90.9233 14.8807C91.1165 15.3807 91.3987 15.7727 91.7699 16.0568C92.1411 16.3371 92.5956 16.4773 93.1335 16.4773C93.6941 16.4773 94.1619 16.3295 94.5369 16.0341C94.9157 15.7348 95.1998 15.3333 95.3892 14.8295C95.5824 14.322 95.679 13.7576 95.679 13.1364C95.679 12.5227 95.5843 11.9697 95.3949 11.4773C95.2093 10.9811 94.9271 10.589 94.5483 10.3011C94.1733 10.0095 93.7017 9.86364 93.1335 9.86364C92.5881 9.86364 92.1297 10.0019 91.7585 10.2784C91.3873 10.5511 91.107 10.9337 90.9176 11.4261C90.7282 11.9148 90.6335 12.4848 90.6335 13.1364ZM101.639 17.7045C101.086 17.7045 100.584 17.6004 100.134 17.392C99.6828 17.1799 99.3248 16.875 99.0597 16.4773C98.7945 16.0758 98.6619 15.5909 98.6619 15.0227C98.6619 14.5227 98.7604 14.1174 98.9574 13.8068C99.1544 13.4924 99.4176 13.2462 99.7472 13.0682C100.077 12.8902 100.44 12.7576 100.838 12.6705C101.24 12.5795 101.643 12.5076 102.048 12.4545C102.579 12.3864 103.009 12.3352 103.338 12.3011C103.671 12.2633 103.914 12.2008 104.065 12.1136C104.221 12.0265 104.298 11.875 104.298 11.6591V11.6136C104.298 11.053 104.145 10.6174 103.838 10.3068C103.535 9.99621 103.075 9.84091 102.457 9.84091C101.817 9.84091 101.315 9.98106 100.952 10.2614C100.588 10.5417 100.332 10.8409 100.185 11.1591L98.9119 10.7045C99.1392 10.1742 99.4422 9.76136 99.821 9.46591C100.204 9.16667 100.62 8.95833 101.071 8.84091C101.526 8.7197 101.973 8.65909 102.412 8.65909C102.692 8.65909 103.014 8.69318 103.378 8.76136C103.745 8.82576 104.099 8.96023 104.44 9.16477C104.785 9.36932 105.071 9.67803 105.298 10.0909C105.526 10.5038 105.639 11.0568 105.639 11.75V17.5H104.298V16.3182H104.23C104.139 16.5076 103.988 16.7102 103.776 16.9261C103.563 17.142 103.281 17.3258 102.929 17.4773C102.577 17.6288 102.147 17.7045 101.639 17.7045ZM101.844 16.5C102.374 16.5 102.821 16.3958 103.185 16.1875C103.552 15.9792 103.829 15.7102 104.014 15.3807C104.204 15.0511 104.298 14.7045 104.298 14.3409V13.1136C104.241 13.1818 104.116 13.2443 103.923 13.3011C103.734 13.3542 103.514 13.4015 103.264 13.4432C103.018 13.4811 102.777 13.5152 102.543 13.5455C102.312 13.572 102.124 13.5947 101.98 13.6136C101.632 13.6591 101.306 13.733 101.003 13.8352C100.704 13.9337 100.461 14.0833 100.276 14.2841C100.094 14.4811 100.003 14.75 100.003 15.0909C100.003 15.5568 100.175 15.9091 100.52 16.1477C100.868 16.3826 101.31 16.5 101.844 16.5ZM111.632 17.6818C110.814 17.6818 110.109 17.4886 109.518 17.1023C108.928 16.7159 108.473 16.1837 108.155 15.5057C107.837 14.8277 107.678 14.053 107.678 13.1818C107.678 12.2955 107.84 11.5133 108.166 10.8352C108.496 10.1534 108.954 9.62121 109.541 9.23864C110.132 8.85227 110.821 8.65909 111.609 8.65909C112.223 8.65909 112.776 8.77273 113.268 9C113.761 9.22727 114.164 9.54545 114.479 9.95455C114.793 10.3636 114.988 10.8409 115.064 11.3864H113.723C113.621 10.9886 113.393 10.6364 113.041 10.3295C112.693 10.0189 112.223 9.86364 111.632 9.86364C111.109 9.86364 110.651 10 110.257 10.2727C109.867 10.5417 109.562 10.9223 109.342 11.4148C109.126 11.9034 109.018 12.4773 109.018 13.1364C109.018 13.8106 109.125 14.3977 109.337 14.8977C109.553 15.3977 109.856 15.786 110.246 16.0625C110.64 16.339 111.102 16.4773 111.632 16.4773C111.981 16.4773 112.297 16.4167 112.581 16.2955C112.865 16.1742 113.106 16 113.303 15.7727C113.5 15.5455 113.64 15.2727 113.723 14.9545H115.064C114.988 15.4697 114.801 15.9337 114.501 16.3466C114.206 16.7557 113.814 17.0814 113.325 17.3239C112.84 17.5625 112.276 17.6818 111.632 17.6818ZM118.274 14.3182L118.251 12.6591H118.524L122.342 8.77273H124.001L119.933 12.8864H119.82L118.274 14.3182ZM117.024 17.5V5.86364H118.365V17.5H117.024ZM122.57 17.5L119.161 13.1818L120.115 12.25L124.274 17.5H122.57Z" fill="#080808"/>
<path d="M145 22C150.523 22 155 17.5228 155 12C155 6.47715 150.523 2 145 2C139.477 2 135 6.47715 135 12C135 17.5228 139.477 22 145 22Z" stroke="#080808" stroke-width="1.5" stroke-linecap="round" stroke-linejoin="round"/>
<path d="M142 9.00001C142 5.49998 147.5 5.50001 147.5 9.00001C147.5 11.5 145 10.9999 145 13.9999" stroke="#080808" stroke-width="1.5" stroke-linecap="round" stroke-linejoin="round"/>
<path d="M145 18.0099L145.01 17.9988" stroke="#080808" stroke-width="1.5" stroke-linecap="round" stroke-linejoin="round"/>
</svg>
