<svg width="269" height="277" viewBox="0 0 269 277" fill="none" xmlns="http://www.w3.org/2000/svg">
<rect x="8.5" y="0.5" width="252" height="39" rx="3.5" fill="#F4F4F4"/>
<rect x="8.5" y="0.5" width="252" height="39" rx="3.5" stroke="#DDDDDD"/>
<path d="M18 16L27.7317 11.1341C27.9006 11.0497 28.0994 11.0497 28.2683 11.1341L38 16" stroke="#797979" stroke-width="1.5" stroke-linecap="round" stroke-linejoin="round"/>
<path d="M36 19V27C36 28.1046 35.1046 29 34 29H22C20.8954 29 20 28.1046 20 27V19" stroke="#797979" stroke-width="1.5" stroke-linecap="round" stroke-linejoin="round"/>
<path d="M55.7614 27V12.4545H57.5227V18.9318H65.2784V12.4545H67.0398V27H65.2784V20.4943H57.5227V27H55.7614ZM74.7706 27.2273C73.7857 27.2273 72.9216 26.9929 72.1783 26.5241C71.4396 26.0554 70.862 25.3996 70.4453 24.5568C70.0334 23.714 69.8274 22.7292 69.8274 21.6023C69.8274 20.4659 70.0334 19.474 70.4453 18.6264C70.862 17.7789 71.4396 17.1207 72.1783 16.652C72.9216 16.1832 73.7857 15.9489 74.7706 15.9489C75.7554 15.9489 76.6172 16.1832 77.3558 16.652C78.0992 17.1207 78.6768 17.7789 79.0888 18.6264C79.5054 19.474 79.7138 20.4659 79.7138 21.6023C79.7138 22.7292 79.5054 23.714 79.0888 24.5568C78.6768 25.3996 78.0992 26.0554 77.3558 26.5241C76.6172 26.9929 75.7554 27.2273 74.7706 27.2273ZM74.7706 25.7216C75.5187 25.7216 76.1342 25.5298 76.6172 25.1463C77.1001 24.7628 77.4576 24.2585 77.6896 23.6335C77.9216 23.0085 78.0376 22.3314 78.0376 21.6023C78.0376 20.8731 77.9216 20.1937 77.6896 19.5639C77.4576 18.9342 77.1001 18.4252 76.6172 18.0369C76.1342 17.6487 75.5187 17.4545 74.7706 17.4545C74.0225 17.4545 73.407 17.6487 72.924 18.0369C72.4411 18.4252 72.0836 18.9342 71.8516 19.5639C71.6196 20.1937 71.5036 20.8731 71.5036 21.6023C71.5036 22.3314 71.6196 23.0085 71.8516 23.6335C72.0836 24.2585 72.4411 24.7628 72.924 25.1463C73.407 25.5298 74.0225 25.7216 74.7706 25.7216ZM82.2724 27V16.0909H83.8917V17.7955H84.0337C84.261 17.2131 84.628 16.7609 85.1346 16.4389C85.6412 16.1122 86.2496 15.9489 86.9599 15.9489C87.6796 15.9489 88.2785 16.1122 88.7567 16.4389C89.2397 16.7609 89.6161 17.2131 89.886 17.7955H89.9996C90.279 17.232 90.698 16.7846 91.2567 16.4531C91.8155 16.117 92.4854 15.9489 93.2667 15.9489C94.2421 15.9489 95.0399 16.2543 95.6602 16.8651C96.2804 17.4711 96.5906 18.4157 96.5906 19.6989V27H94.9144V19.6989C94.9144 18.8939 94.6942 18.3187 94.2539 17.973C93.8136 17.6274 93.2951 17.4545 92.6985 17.4545C91.9315 17.4545 91.3372 17.6866 90.9158 18.1506C90.4944 18.6098 90.2837 19.1922 90.2837 19.8977V27H88.5792V19.5284C88.5792 18.9081 88.378 18.4086 87.9755 18.0298C87.573 17.6463 87.0546 17.4545 86.4201 17.4545C85.9845 17.4545 85.5773 17.5705 85.1985 17.8026C84.8245 18.0346 84.5214 18.3565 84.2894 18.7685C84.0621 19.1757 83.9485 19.6468 83.9485 20.1818V27H82.2724ZM104.229 27.2273C103.178 27.2273 102.271 26.9953 101.509 26.5312C100.751 26.0625 100.167 25.4091 99.7546 24.571C99.3474 23.7282 99.1438 22.7481 99.1438 21.6307C99.1438 20.5133 99.3474 19.5284 99.7546 18.6761C100.167 17.8191 100.739 17.1515 101.473 16.6733C102.212 16.1903 103.074 15.9489 104.059 15.9489C104.627 15.9489 105.188 16.0436 105.742 16.233C106.296 16.4223 106.8 16.7301 107.255 17.1562C107.709 17.5777 108.071 18.1364 108.341 18.8324C108.611 19.5284 108.746 20.3854 108.746 21.4034V22.1136H100.337V20.6648H107.042C107.042 20.0492 106.918 19.5 106.672 19.017C106.431 18.5341 106.085 18.1529 105.635 17.8736C105.19 17.5942 104.665 17.4545 104.059 17.4545C103.391 17.4545 102.813 17.6203 102.326 17.9517C101.843 18.2784 101.471 18.7045 101.211 19.2301C100.95 19.7557 100.82 20.3191 100.82 20.9205V21.8864C100.82 22.7102 100.962 23.4086 101.246 23.9815C101.535 24.5497 101.935 24.983 102.446 25.2812C102.958 25.5748 103.552 25.7216 104.229 25.7216C104.669 25.7216 105.067 25.66 105.422 25.5369C105.782 25.4091 106.092 25.2197 106.353 24.9688C106.613 24.7131 106.814 24.3958 106.956 24.017L108.576 24.4716C108.405 25.0208 108.119 25.5038 107.716 25.9205C107.314 26.3324 106.817 26.6544 106.225 26.8864C105.633 27.1136 104.968 27.2273 104.229 27.2273Z" fill="#797979"/>
<path d="M19 55.6V72.4C19 72.7314 19.2686 73 19.6 73H36.4C36.7314 73 37 72.7314 37 72.4V55.6C37 55.2686 36.7314 55 36.4 55H19.6C19.2686 55 19 55.2686 19 55.6Z" stroke="#797979" stroke-width="1.5" stroke-linecap="round" stroke-linejoin="round"/>
<path d="M22 58V68" stroke="#797979" stroke-width="1.5" stroke-linecap="round" stroke-linejoin="round"/>
<path d="M26 58V61" stroke="#797979" stroke-width="1.5" stroke-linecap="round" stroke-linejoin="round"/>
<path d="M30 58V65" stroke="#797979" stroke-width="1.5" stroke-linecap="round" stroke-linejoin="round"/>
<path d="M34 58V63" stroke="#797979" stroke-width="1.5" stroke-linecap="round" stroke-linejoin="round"/>
<path d="M55.7614 71V56.4545H60.8466C61.8598 56.4545 62.6955 56.6297 63.3537 56.9801C64.0118 57.3258 64.5019 57.7921 64.8239 58.3793C65.1458 58.9616 65.3068 59.608 65.3068 60.3182C65.3068 60.9432 65.1955 61.4593 64.973 61.8665C64.7552 62.2737 64.4664 62.5956 64.1065 62.8324C63.7514 63.0691 63.3655 63.2443 62.9489 63.358V63.5C63.3939 63.5284 63.8414 63.6847 64.2912 63.9688C64.741 64.2528 65.1174 64.66 65.4205 65.1903C65.7235 65.7206 65.875 66.3693 65.875 67.1364C65.875 67.8655 65.7093 68.5213 65.3778 69.1037C65.0464 69.6861 64.5232 70.1477 63.8082 70.4886C63.0933 70.8295 62.1629 71 61.017 71H55.7614ZM57.5227 69.4375H61.017C62.1676 69.4375 62.9844 69.215 63.4673 68.7699C63.955 68.3201 64.1989 67.7756 64.1989 67.1364C64.1989 66.6439 64.0734 66.1894 63.8224 65.7727C63.5715 65.3513 63.214 65.0152 62.75 64.7642C62.286 64.5085 61.7367 64.3807 61.1023 64.3807H57.5227V69.4375ZM57.5227 62.8466H60.7898C61.3201 62.8466 61.7983 62.7424 62.2244 62.5341C62.6553 62.3258 62.9962 62.0322 63.2472 61.6534C63.5028 61.2746 63.6307 60.8295 63.6307 60.3182C63.6307 59.679 63.4081 59.1368 62.9631 58.6918C62.518 58.242 61.8125 58.017 60.8466 58.017H57.5227V62.8466ZM72.9737 71.2273C71.9889 71.2273 71.1248 70.9929 70.3814 70.5241C69.6428 70.0554 69.0651 69.3996 68.6484 68.5568C68.2365 67.714 68.0305 66.7292 68.0305 65.6023C68.0305 64.4659 68.2365 63.474 68.6484 62.6264C69.0651 61.7789 69.6428 61.1207 70.3814 60.652C71.1248 60.1832 71.9889 59.9489 72.9737 59.9489C73.9586 59.9489 74.8203 60.1832 75.5589 60.652C76.3023 61.1207 76.88 61.7789 77.2919 62.6264C77.7086 63.474 77.9169 64.4659 77.9169 65.6023C77.9169 66.7292 77.7086 67.714 77.2919 68.5568C76.88 69.3996 76.3023 70.0554 75.5589 70.5241C74.8203 70.9929 73.9586 71.2273 72.9737 71.2273ZM72.9737 69.7216C73.7218 69.7216 74.3374 69.5298 74.8203 69.1463C75.3033 68.7628 75.6607 68.2585 75.8928 67.6335C76.1248 67.0085 76.2408 66.3314 76.2408 65.6023C76.2408 64.8731 76.1248 64.1937 75.8928 63.5639C75.6607 62.9342 75.3033 62.4252 74.8203 62.0369C74.3374 61.6487 73.7218 61.4545 72.9737 61.4545C72.2256 61.4545 71.6101 61.6487 71.1271 62.0369C70.6442 62.4252 70.2867 62.9342 70.0547 63.5639C69.8227 64.1937 69.7067 64.8731 69.7067 65.6023C69.7067 66.3314 69.8227 67.0085 70.0547 67.6335C70.2867 68.2585 70.6442 68.7628 71.1271 69.1463C71.6101 69.5298 72.2256 69.7216 72.9737 69.7216ZM83.6857 71.2557C82.9944 71.2557 82.3671 71.1255 81.8036 70.8651C81.2402 70.5999 80.7927 70.2188 80.4613 69.7216C80.1299 69.2197 79.9641 68.6136 79.9641 67.9034C79.9641 67.2784 80.0872 66.7718 80.3335 66.3835C80.5797 65.9905 80.9087 65.6828 81.3207 65.4602C81.7326 65.2377 82.1871 65.072 82.6843 64.9631C83.1862 64.8494 83.6905 64.7595 84.1971 64.6932C84.86 64.608 85.3974 64.544 85.8093 64.5014C86.226 64.4541 86.529 64.3759 86.7184 64.267C86.9125 64.1581 87.0096 63.9687 87.0096 63.6989V63.642C87.0096 62.9413 86.8178 62.3968 86.4343 62.0085C86.0555 61.6203 85.4802 61.4261 84.7085 61.4261C83.9083 61.4261 83.2809 61.6013 82.8263 61.9517C82.3718 62.3021 82.0522 62.6761 81.8675 63.0739L80.2766 62.5057C80.5607 61.8428 80.9395 61.3267 81.413 60.9574C81.8912 60.5833 82.4121 60.3229 82.9755 60.1761C83.5437 60.0246 84.1024 59.9489 84.6516 59.9489C85.002 59.9489 85.4045 59.9915 85.859 60.0767C86.3183 60.1572 86.761 60.3253 87.1871 60.581C87.618 60.8366 87.9755 61.2225 88.2596 61.7386C88.5437 62.2547 88.6857 62.946 88.6857 63.8125V71H87.0096V69.5227H86.9244C86.8107 69.7595 86.6213 70.0128 86.3562 70.2827C86.091 70.5526 85.7383 70.7822 85.2979 70.9716C84.8576 71.161 84.3202 71.2557 83.6857 71.2557ZM83.9414 69.75C84.6043 69.75 85.163 69.6198 85.6175 69.3594C86.0768 69.099 86.4225 68.7628 86.6545 68.3509C86.8912 67.9389 87.0096 67.5057 87.0096 67.0511V65.517C86.9386 65.6023 86.7823 65.6804 86.5408 65.7514C86.3041 65.8177 86.0295 65.8769 85.717 65.929C85.4092 65.9763 85.1085 66.0189 84.815 66.0568C84.5262 66.09 84.2918 66.1184 84.1119 66.142C83.6763 66.1989 83.2691 66.2912 82.8903 66.419C82.5162 66.5421 82.2132 66.7292 81.9812 66.9801C81.7539 67.2263 81.6403 67.5625 81.6403 67.9886C81.6403 68.571 81.8557 69.0114 82.2866 69.3097C82.7222 69.6032 83.2738 69.75 83.9414 69.75ZM91.745 71V60.0909H93.3643V61.7386H93.478C93.6768 61.1989 94.0367 60.7609 94.5575 60.4247C95.0784 60.0885 95.6655 59.9205 96.3189 59.9205C96.442 59.9205 96.5959 59.9228 96.7805 59.9276C96.9652 59.9323 97.1049 59.9394 97.1996 59.9489V61.6534C97.1428 61.6392 97.0125 61.6179 96.8089 61.5895C96.6101 61.5563 96.3994 61.5398 96.1768 61.5398C95.6465 61.5398 95.1731 61.651 94.7564 61.8736C94.3445 62.0914 94.0178 62.3944 93.7763 62.7827C93.5395 63.1662 93.4212 63.6042 93.4212 64.0966V71H91.745ZM102.974 71.2273C102.065 71.2273 101.262 70.9976 100.566 70.5384C99.87 70.0743 99.3255 69.4209 98.9325 68.5781C98.5395 67.7306 98.343 66.7292 98.343 65.5739C98.343 64.428 98.5395 63.4337 98.9325 62.5909C99.3255 61.7481 99.8724 61.0971 100.573 60.6378C101.274 60.1785 102.084 59.9489 103.002 59.9489C103.712 59.9489 104.273 60.0672 104.685 60.304C105.102 60.536 105.419 60.8011 105.637 61.0994C105.86 61.393 106.032 61.6345 106.156 61.8239H106.298V56.4545H107.974V71H106.354V69.3239H106.156C106.032 69.5227 105.857 69.7737 105.63 70.0767C105.403 70.375 105.078 70.6425 104.657 70.8793C104.236 71.1113 103.674 71.2273 102.974 71.2273ZM103.201 69.7216C103.873 69.7216 104.442 69.5464 104.906 69.196C105.37 68.8409 105.722 68.3509 105.964 67.7259C106.205 67.0961 106.326 66.3693 106.326 65.5455C106.326 64.7311 106.208 64.0185 105.971 63.4077C105.734 62.7921 105.384 62.3139 104.92 61.973C104.456 61.6274 103.883 61.4545 103.201 61.4545C102.491 61.4545 101.899 61.6368 101.425 62.0014C100.957 62.3613 100.604 62.8513 100.367 63.4716C100.135 64.0871 100.019 64.7784 100.019 65.5455C100.019 66.322 100.138 67.0275 100.374 67.6619C100.616 68.2917 100.971 68.7936 101.44 69.1676C101.913 69.5369 102.5 69.7216 103.201 69.7216ZM119.004 62.5341L117.498 62.9602C117.403 62.7093 117.263 62.4654 117.079 62.2287C116.899 61.9872 116.653 61.7884 116.34 61.6321C116.028 61.4759 115.628 61.3977 115.14 61.3977C114.472 61.3977 113.916 61.5516 113.471 61.8594C113.031 62.1624 112.81 62.5483 112.81 63.017C112.81 63.4337 112.962 63.7628 113.265 64.0043C113.568 64.2457 114.041 64.447 114.685 64.608L116.305 65.0057C117.28 65.2424 118.007 65.6046 118.485 66.0923C118.963 66.5753 119.202 67.1979 119.202 67.9602C119.202 68.5852 119.022 69.1439 118.663 69.6364C118.308 70.1288 117.81 70.517 117.171 70.8011C116.532 71.0852 115.789 71.2273 114.941 71.2273C113.828 71.2273 112.907 70.9858 112.178 70.5028C111.449 70.0199 110.987 69.3144 110.793 68.3864L112.384 67.9886C112.536 68.5758 112.822 69.0161 113.244 69.3097C113.67 69.6032 114.226 69.75 114.913 69.75C115.694 69.75 116.314 69.5843 116.773 69.2528C117.237 68.9167 117.469 68.5142 117.469 68.0455C117.469 67.6667 117.337 67.3494 117.072 67.0938C116.807 66.8333 116.399 66.6392 115.85 66.5114L114.032 66.0852C113.033 65.8485 112.299 65.4815 111.83 64.9844C111.366 64.4825 111.134 63.8551 111.134 63.1023C111.134 62.4867 111.307 61.9422 111.653 61.4688C112.003 60.9953 112.479 60.6236 113.08 60.3537C113.686 60.0838 114.373 59.9489 115.14 59.9489C116.219 59.9489 117.067 60.1856 117.683 60.6591C118.303 61.1326 118.743 61.7576 119.004 62.5341Z" fill="#797979"/>
<path d="M28 107C29.6569 107 31 105.657 31 104C31 102.343 29.6569 101 28 101C26.3431 101 25 102.343 25 104C25 105.657 26.3431 107 28 107Z" stroke="#797979" stroke-width="1.5" stroke-linecap="round" stroke-linejoin="round"/>
<path d="M35.6224 102.395L34.5247 99.7448L36 98L34 96L32.2647 97.483L29.5578 96.3697L28.9353 94H26.981L26.3491 96.4011L23.7044 97.516L22 96L20 98L21.4534 99.7888L20.3725 102.446L18 103V105L20.4011 105.656L21.5157 108.3L20 110L22 112L23.7912 110.54L26.397 111.612L27 114H29L29.6045 111.613L32.2551 110.515C32.6969 110.831 34 112 34 112L36 110L34.5159 108.249L35.6139 105.598L37.9999 104.977L38 103L35.6224 102.395Z" stroke="#797979" stroke-width="1.5" stroke-linecap="round" stroke-linejoin="round"/>
<path d="M63.7159 100.091C63.6307 99.3712 63.285 98.8125 62.679 98.4148C62.0729 98.017 61.3295 97.8182 60.4489 97.8182C59.8049 97.8182 59.2415 97.9223 58.7585 98.1307C58.2803 98.339 57.9063 98.6255 57.6364 98.9901C57.3712 99.3546 57.2386 99.7689 57.2386 100.233C57.2386 100.621 57.331 100.955 57.5156 101.234C57.705 101.509 57.9465 101.739 58.2401 101.923C58.5336 102.103 58.8414 102.252 59.1634 102.371C59.4853 102.484 59.7812 102.577 60.0511 102.648L61.5284 103.045C61.9072 103.145 62.3286 103.282 62.7926 103.457C63.2614 103.633 63.7088 103.872 64.1349 104.175C64.5658 104.473 64.9209 104.857 65.2003 105.325C65.4796 105.794 65.6193 106.369 65.6193 107.051C65.6193 107.837 65.4134 108.547 65.0014 109.182C64.5942 109.816 63.9976 110.321 63.2116 110.695C62.4304 111.069 61.4811 111.256 60.3636 111.256C59.322 111.256 58.42 111.088 57.6577 110.751C56.9001 110.415 56.3035 109.946 55.8679 109.345C55.437 108.744 55.1932 108.045 55.1364 107.25H56.9545C57.0019 107.799 57.1866 108.254 57.5085 108.614C57.8352 108.969 58.2472 109.234 58.7443 109.409C59.2462 109.58 59.786 109.665 60.3636 109.665C61.036 109.665 61.6397 109.556 62.1747 109.338C62.7098 109.116 63.1335 108.808 63.446 108.415C63.7585 108.017 63.9148 107.553 63.9148 107.023C63.9148 106.54 63.7798 106.147 63.5099 105.844C63.2401 105.541 62.8849 105.295 62.4446 105.105C62.0043 104.916 61.5284 104.75 61.017 104.608L59.2273 104.097C58.0909 103.77 57.1913 103.304 56.5284 102.697C55.8655 102.091 55.5341 101.298 55.5341 100.318C55.5341 99.5038 55.7543 98.7936 56.1946 98.1875C56.6397 97.5767 57.2363 97.1032 57.9844 96.767C58.7372 96.4261 59.5777 96.2557 60.5057 96.2557C61.4432 96.2557 62.2765 96.4238 63.0057 96.7599C63.7348 97.0914 64.3125 97.5459 64.7386 98.1236C65.1695 98.7012 65.3968 99.357 65.4205 100.091H63.7159ZM72.8619 111.227C71.8107 111.227 70.904 110.995 70.1417 110.531C69.3841 110.062 68.7994 109.409 68.3874 108.571C67.9802 107.728 67.7766 106.748 67.7766 105.631C67.7766 104.513 67.9802 103.528 68.3874 102.676C68.7994 101.819 69.3723 101.152 70.1062 100.673C70.8448 100.19 71.7066 99.9489 72.6914 99.9489C73.2596 99.9489 73.8207 100.044 74.3746 100.233C74.9286 100.422 75.4329 100.73 75.8874 101.156C76.342 101.578 76.7042 102.136 76.9741 102.832C77.244 103.528 77.3789 104.385 77.3789 105.403V106.114H68.9698V104.665H75.6744C75.6744 104.049 75.5513 103.5 75.305 103.017C75.0636 102.534 74.7179 102.153 74.2681 101.874C73.823 101.594 73.2975 101.455 72.6914 101.455C72.0238 101.455 71.4461 101.62 70.9585 101.952C70.4755 102.278 70.1038 102.705 69.8434 103.23C69.583 103.756 69.4528 104.319 69.4528 104.92V105.886C69.4528 106.71 69.5948 107.409 69.8789 107.982C70.1677 108.55 70.5678 108.983 71.0792 109.281C71.5906 109.575 72.1848 109.722 72.8619 109.722C73.3022 109.722 73.6999 109.66 74.055 109.537C74.4149 109.409 74.725 109.22 74.9854 108.969C75.2459 108.713 75.4471 108.396 75.5891 108.017L77.2085 108.472C77.038 109.021 76.7515 109.504 76.3491 109.92C75.9466 110.332 75.4495 110.654 74.8576 110.886C74.2657 111.114 73.6005 111.227 72.8619 111.227ZM84.6729 100.091V101.511H79.0195V100.091H84.6729ZM80.6673 97.4773H82.3434V107.875C82.3434 108.348 82.4121 108.704 82.5494 108.94C82.6914 109.172 82.8713 109.329 83.0891 109.409C83.3117 109.485 83.546 109.523 83.7923 109.523C83.9769 109.523 84.1284 109.513 84.2468 109.494C84.3652 109.471 84.4599 109.452 84.5309 109.438L84.8718 110.943C84.7582 110.986 84.5996 111.028 84.396 111.071C84.1924 111.118 83.9343 111.142 83.6218 111.142C83.1483 111.142 82.6843 111.04 82.2298 110.837C81.7799 110.633 81.4059 110.323 81.1076 109.906C80.814 109.49 80.6673 108.964 80.6673 108.33V97.4773ZM91.9386 100.091V101.511H86.2852V100.091H91.9386ZM87.9329 97.4773H89.609V107.875C89.609 108.348 89.6777 108.704 89.815 108.94C89.957 109.172 90.137 109.329 90.3548 109.409C90.5773 109.485 90.8117 109.523 91.0579 109.523C91.2425 109.523 91.3941 109.513 91.5124 109.494C91.6308 109.471 91.7255 109.452 91.7965 109.438L92.1374 110.943C92.0238 110.986 91.8652 111.028 91.6616 111.071C91.458 111.118 91.1999 111.142 90.8874 111.142C90.4139 111.142 89.9499 111.04 89.4954 110.837C89.0456 110.633 88.6715 110.323 88.3732 109.906C88.0797 109.49 87.9329 108.964 87.9329 108.33V97.4773ZM94.4599 111V100.091H96.136V111H94.4599ZM95.3121 98.2727C94.9854 98.2727 94.7037 98.1615 94.467 97.9389C94.235 97.7164 94.119 97.4489 94.119 97.1364C94.119 96.8239 94.235 96.5563 94.467 96.3338C94.7037 96.1113 94.9854 96 95.3121 96C95.6388 96 95.9182 96.1113 96.1502 96.3338C96.387 96.5563 96.5053 96.8239 96.5053 97.1364C96.5053 97.4489 96.387 97.7164 96.1502 97.9389C95.9182 98.1615 95.6388 98.2727 95.3121 98.2727ZM100.882 104.438V111H99.206V100.091H100.825V101.795H100.967C101.223 101.241 101.611 100.796 102.132 100.46C102.653 100.119 103.325 99.9489 104.149 99.9489C104.888 99.9489 105.534 100.1 106.088 100.403C106.642 100.702 107.073 101.156 107.381 101.767C107.688 102.373 107.842 103.14 107.842 104.068V111H106.166V104.182C106.166 103.325 105.944 102.657 105.499 102.179C105.054 101.696 104.443 101.455 103.666 101.455C103.131 101.455 102.653 101.571 102.232 101.803C101.815 102.035 101.486 102.373 101.244 102.818C101.003 103.263 100.882 103.803 100.882 104.438ZM115.309 115.318C114.499 115.318 113.803 115.214 113.221 115.006C112.638 114.802 112.153 114.532 111.765 114.196C111.381 113.865 111.076 113.509 110.848 113.131L112.184 112.193C112.335 112.392 112.527 112.619 112.759 112.875C112.991 113.135 113.308 113.36 113.711 113.55C114.118 113.744 114.65 113.841 115.309 113.841C116.189 113.841 116.916 113.628 117.489 113.202C118.062 112.776 118.348 112.108 118.348 111.199V108.983H118.206C118.083 109.182 117.908 109.428 117.681 109.722C117.458 110.01 117.136 110.268 116.715 110.496C116.298 110.718 115.735 110.83 115.025 110.83C114.144 110.83 113.353 110.621 112.652 110.205C111.956 109.788 111.405 109.182 110.998 108.386C110.595 107.591 110.394 106.625 110.394 105.489C110.394 104.371 110.59 103.398 110.983 102.57C111.376 101.736 111.923 101.092 112.624 100.638C113.325 100.179 114.134 99.9489 115.053 99.9489C115.763 99.9489 116.327 100.067 116.743 100.304C117.165 100.536 117.487 100.801 117.709 101.099C117.936 101.393 118.112 101.634 118.235 101.824H118.405V100.091H120.025V111.312C120.025 112.25 119.811 113.012 119.385 113.599C118.964 114.191 118.396 114.625 117.681 114.899C116.971 115.179 116.18 115.318 115.309 115.318ZM115.252 109.324C115.924 109.324 116.492 109.17 116.956 108.862C117.42 108.554 117.773 108.112 118.015 107.534C118.256 106.956 118.377 106.265 118.377 105.46C118.377 104.674 118.258 103.981 118.022 103.379C117.785 102.778 117.435 102.307 116.971 101.966C116.507 101.625 115.934 101.455 115.252 101.455C114.542 101.455 113.95 101.634 113.476 101.994C113.007 102.354 112.655 102.837 112.418 103.443C112.186 104.049 112.07 104.722 112.07 105.46C112.07 106.218 112.188 106.888 112.425 107.47C112.667 108.048 113.022 108.502 113.49 108.834C113.964 109.161 114.551 109.324 115.252 109.324ZM130.82 102.534L129.314 102.96C129.22 102.709 129.08 102.465 128.895 102.229C128.715 101.987 128.469 101.788 128.157 101.632C127.844 101.476 127.444 101.398 126.956 101.398C126.289 101.398 125.732 101.552 125.287 101.859C124.847 102.162 124.627 102.548 124.627 103.017C124.627 103.434 124.778 103.763 125.081 104.004C125.384 104.246 125.858 104.447 126.502 104.608L128.121 105.006C129.096 105.242 129.823 105.605 130.301 106.092C130.78 106.575 131.019 107.198 131.019 107.96C131.019 108.585 130.839 109.144 130.479 109.636C130.124 110.129 129.627 110.517 128.988 110.801C128.348 111.085 127.605 111.227 126.757 111.227C125.645 111.227 124.724 110.986 123.995 110.503C123.266 110.02 122.804 109.314 122.61 108.386L124.201 107.989C124.352 108.576 124.639 109.016 125.06 109.31C125.486 109.603 126.042 109.75 126.729 109.75C127.51 109.75 128.131 109.584 128.59 109.253C129.054 108.917 129.286 108.514 129.286 108.045C129.286 107.667 129.153 107.349 128.888 107.094C128.623 106.833 128.216 106.639 127.667 106.511L125.848 106.085C124.849 105.848 124.115 105.482 123.647 104.984C123.183 104.482 122.951 103.855 122.951 103.102C122.951 102.487 123.123 101.942 123.469 101.469C123.819 100.995 124.295 100.624 124.897 100.354C125.503 100.084 126.189 99.9489 126.956 99.9489C128.036 99.9489 128.883 100.186 129.499 100.659C130.119 101.133 130.56 101.758 130.82 102.534Z" fill="#797979"/>
<path d="M17 152V151C17 147.134 20.134 144 24 144C27.866 144 31 147.134 31 151V152" stroke="#797979" stroke-width="1.5" stroke-linecap="round"/>
<path d="M29 146C29 143.239 31.2386 141 34 141C36.7614 141 39 143.239 39 146V146.5" stroke="#797979" stroke-width="1.5" stroke-linecap="round"/>
<path d="M24 144C26.2091 144 28 142.209 28 140C28 137.791 26.2091 136 24 136C21.7909 136 20 137.791 20 140C20 142.209 21.7909 144 24 144Z" stroke="#797979" stroke-width="1.5" stroke-linecap="round" stroke-linejoin="round"/>
<path d="M34 141C35.6569 141 37 139.657 37 138C37 136.343 35.6569 135 34 135C32.3431 135 31 136.343 31 138C31 139.657 32.3431 141 34 141Z" stroke="#797979" stroke-width="1.5" stroke-linecap="round" stroke-linejoin="round"/>
<path d="M54.9659 138.017V136.455H65.875V138.017H61.3011V151H59.5398V138.017H54.9659ZM71.358 151.227C70.3068 151.227 69.4001 150.995 68.6378 150.531C67.8802 150.062 67.2955 149.409 66.8835 148.571C66.4763 147.728 66.2727 146.748 66.2727 145.631C66.2727 144.513 66.4763 143.528 66.8835 142.676C67.2955 141.819 67.8684 141.152 68.6023 140.673C69.3409 140.19 70.2027 139.949 71.1875 139.949C71.7557 139.949 72.3168 140.044 72.8707 140.233C73.4247 140.422 73.929 140.73 74.3835 141.156C74.8381 141.578 75.2003 142.136 75.4702 142.832C75.7401 143.528 75.875 144.385 75.875 145.403V146.114H67.4659V144.665H74.1705C74.1705 144.049 74.0473 143.5 73.8011 143.017C73.5597 142.534 73.214 142.153 72.7642 141.874C72.3191 141.594 71.7936 141.455 71.1875 141.455C70.5199 141.455 69.9422 141.62 69.4545 141.952C68.9716 142.278 68.5999 142.705 68.3395 143.23C68.0791 143.756 67.9489 144.319 67.9489 144.92V145.886C67.9489 146.71 68.0909 147.409 68.375 147.982C68.6638 148.55 69.0639 148.983 69.5753 149.281C70.0866 149.575 70.6809 149.722 71.358 149.722C71.7983 149.722 72.196 149.66 72.5511 149.537C72.911 149.409 73.2211 149.22 73.4815 148.969C73.742 148.713 73.9432 148.396 74.0852 148.017L75.7045 148.472C75.5341 149.021 75.2476 149.504 74.8452 149.92C74.4427 150.332 73.9455 150.654 73.3537 150.886C72.7618 151.114 72.0966 151.227 71.358 151.227ZM81.6349 151.256C80.9437 151.256 80.3163 151.125 79.7528 150.865C79.1894 150.6 78.742 150.219 78.4105 149.722C78.0791 149.22 77.9134 148.614 77.9134 147.903C77.9134 147.278 78.0365 146.772 78.2827 146.384C78.5289 145.991 78.858 145.683 79.2699 145.46C79.6818 145.238 80.1364 145.072 80.6335 144.963C81.1354 144.849 81.6397 144.759 82.1463 144.693C82.8092 144.608 83.3466 144.544 83.7585 144.501C84.1752 144.454 84.4782 144.376 84.6676 144.267C84.8617 144.158 84.9588 143.969 84.9588 143.699V143.642C84.9588 142.941 84.767 142.397 84.3835 142.009C84.0047 141.62 83.4295 141.426 82.6577 141.426C81.8575 141.426 81.2301 141.601 80.7756 141.952C80.321 142.302 80.0014 142.676 79.8168 143.074L78.2259 142.506C78.5099 141.843 78.8887 141.327 79.3622 140.957C79.8404 140.583 80.3613 140.323 80.9247 140.176C81.4929 140.025 82.0516 139.949 82.6009 139.949C82.9512 139.949 83.3537 139.991 83.8082 140.077C84.2675 140.157 84.7102 140.325 85.1364 140.581C85.5672 140.837 85.9247 141.223 86.2088 141.739C86.4929 142.255 86.6349 142.946 86.6349 143.812V151H84.9588V149.523H84.8736C84.7599 149.759 84.5705 150.013 84.3054 150.283C84.0402 150.553 83.6875 150.782 83.2472 150.972C82.8068 151.161 82.2694 151.256 81.6349 151.256ZM81.8906 149.75C82.5535 149.75 83.1122 149.62 83.5668 149.359C84.026 149.099 84.3717 148.763 84.6037 148.351C84.8404 147.939 84.9588 147.506 84.9588 147.051V145.517C84.8878 145.602 84.7315 145.68 84.4901 145.751C84.2533 145.818 83.9787 145.877 83.6662 145.929C83.3584 145.976 83.0578 146.019 82.7642 146.057C82.4754 146.09 82.241 146.118 82.0611 146.142C81.6255 146.199 81.2183 146.291 80.8395 146.419C80.4654 146.542 80.1624 146.729 79.9304 146.98C79.7031 147.226 79.5895 147.562 79.5895 147.989C79.5895 148.571 79.8049 149.011 80.2358 149.31C80.6714 149.603 81.223 149.75 81.8906 149.75ZM89.6942 151V140.091H91.3136V141.795H91.4556C91.6829 141.213 92.0498 140.761 92.5565 140.439C93.0631 140.112 93.6715 139.949 94.3817 139.949C95.1014 139.949 95.7004 140.112 96.1786 140.439C96.6616 140.761 97.038 141.213 97.3079 141.795H97.4215C97.7009 141.232 98.1199 140.785 98.6786 140.453C99.2373 140.117 99.9073 139.949 100.689 139.949C101.664 139.949 102.462 140.254 103.082 140.865C103.702 141.471 104.012 142.416 104.012 143.699V151H102.336V143.699C102.336 142.894 102.116 142.319 101.676 141.973C101.235 141.627 100.717 141.455 100.12 141.455C99.3533 141.455 98.7591 141.687 98.3377 142.151C97.9163 142.61 97.7056 143.192 97.7056 143.898V151H96.0011V143.528C96.0011 142.908 95.7998 142.409 95.3974 142.03C94.9949 141.646 94.4764 141.455 93.842 141.455C93.4064 141.455 92.9992 141.571 92.6204 141.803C92.2463 142.035 91.9433 142.357 91.7113 142.768C91.484 143.176 91.3704 143.647 91.3704 144.182V151H89.6942ZM114.804 142.534L113.299 142.96C113.204 142.709 113.064 142.465 112.88 142.229C112.7 141.987 112.453 141.788 112.141 141.632C111.828 141.476 111.428 141.398 110.941 141.398C110.273 141.398 109.717 141.552 109.272 141.859C108.831 142.162 108.611 142.548 108.611 143.017C108.611 143.434 108.763 143.763 109.066 144.004C109.369 144.246 109.842 144.447 110.486 144.608L112.105 145.006C113.081 145.242 113.808 145.605 114.286 146.092C114.764 146.575 115.003 147.198 115.003 147.96C115.003 148.585 114.823 149.144 114.463 149.636C114.108 150.129 113.611 150.517 112.972 150.801C112.333 151.085 111.589 151.227 110.742 151.227C109.629 151.227 108.708 150.986 107.979 150.503C107.25 150.02 106.788 149.314 106.594 148.386L108.185 147.989C108.337 148.576 108.623 149.016 109.044 149.31C109.471 149.603 110.027 149.75 110.713 149.75C111.495 149.75 112.115 149.584 112.574 149.253C113.038 148.917 113.27 148.514 113.27 148.045C113.27 147.667 113.138 147.349 112.873 147.094C112.607 146.833 112.2 146.639 111.651 146.511L109.833 146.085C108.834 145.848 108.1 145.482 107.631 144.984C107.167 144.482 106.935 143.855 106.935 143.102C106.935 142.487 107.108 141.942 107.453 141.469C107.804 140.995 108.28 140.624 108.881 140.354C109.487 140.084 110.174 139.949 110.941 139.949C112.02 139.949 112.868 140.186 113.483 140.659C114.104 141.133 114.544 141.758 114.804 142.534Z" fill="#797979"/>
<path d="M36 192H20V176" stroke="#797979" stroke-width="1.5" stroke-linecap="round" stroke-linejoin="round"/>
<path d="M20 188.5L28 181L31 184L35.5 179.5" stroke="#797979" stroke-width="1.5" stroke-linecap="round" stroke-linejoin="round"/>
<path d="M56.358 191H54.5114L59.8523 176.455H61.6705L67.0114 191H65.1648L60.8182 178.756H60.7045L56.358 191ZM57.0398 185.318H64.483V186.881H57.0398V185.318ZM70.7259 184.438V191H69.0497V180.091H70.669V181.795H70.8111C71.0668 181.241 71.455 180.796 71.9759 180.46C72.4967 180.119 73.169 179.949 73.9929 179.949C74.7315 179.949 75.3778 180.1 75.9318 180.403C76.4858 180.702 76.9167 181.156 77.2244 181.767C77.5322 182.373 77.6861 183.14 77.6861 184.068V191H76.0099V184.182C76.0099 183.325 75.7874 182.657 75.3423 182.179C74.8973 181.696 74.2865 181.455 73.5099 181.455C72.9749 181.455 72.4967 181.571 72.0753 181.803C71.6586 182.035 71.3295 182.373 71.0881 182.818C70.8466 183.263 70.7259 183.803 70.7259 184.438ZM83.9592 191.256C83.2679 191.256 82.6405 191.125 82.0771 190.865C81.5136 190.6 81.0662 190.219 80.7347 189.722C80.4033 189.22 80.2376 188.614 80.2376 187.903C80.2376 187.278 80.3607 186.772 80.6069 186.384C80.8531 185.991 81.1822 185.683 81.5941 185.46C82.006 185.238 82.4606 185.072 82.9577 184.963C83.4596 184.849 83.9639 184.759 84.4705 184.693C85.1334 184.608 85.6708 184.544 86.0827 184.501C86.4994 184.454 86.8024 184.376 86.9918 184.267C87.186 184.158 87.283 183.969 87.283 183.699V183.642C87.283 182.941 87.0913 182.397 86.7077 182.009C86.329 181.62 85.7537 181.426 84.9819 181.426C84.1817 181.426 83.5543 181.601 83.0998 181.952C82.6452 182.302 82.3256 182.676 82.141 183.074L80.5501 182.506C80.8342 181.843 81.2129 181.327 81.6864 180.957C82.1647 180.583 82.6855 180.323 83.2489 180.176C83.8171 180.025 84.3758 179.949 84.9251 179.949C85.2754 179.949 85.6779 179.991 86.1325 180.077C86.5917 180.157 87.0344 180.325 87.4606 180.581C87.8915 180.837 88.2489 181.223 88.533 181.739C88.8171 182.255 88.9592 182.946 88.9592 183.812V191H87.283V189.523H87.1978C87.0842 189.759 86.8948 190.013 86.6296 190.283C86.3645 190.553 86.0117 190.782 85.5714 190.972C85.131 191.161 84.5936 191.256 83.9592 191.256ZM84.2148 189.75C84.8777 189.75 85.4364 189.62 85.891 189.359C86.3503 189.099 86.6959 188.763 86.9279 188.351C87.1647 187.939 87.283 187.506 87.283 187.051V185.517C87.212 185.602 87.0558 185.68 86.8143 185.751C86.5775 185.818 86.3029 185.877 85.9904 185.929C85.6826 185.976 85.382 186.019 85.0884 186.057C84.7996 186.09 84.5652 186.118 84.3853 186.142C83.9497 186.199 83.5425 186.291 83.1637 186.419C82.7897 186.542 82.4866 186.729 82.2546 186.98C82.0273 187.226 81.9137 187.562 81.9137 187.989C81.9137 188.571 82.1291 189.011 82.56 189.31C82.9956 189.603 83.5472 189.75 84.2148 189.75ZM93.6946 176.455V191H92.0185V176.455H93.6946ZM97.8441 195.091C97.56 195.091 97.3067 195.067 97.0842 195.02C96.8616 194.977 96.7077 194.935 96.6225 194.892L97.0487 193.415C97.4558 193.519 97.8157 193.557 98.1282 193.528C98.4407 193.5 98.7177 193.36 98.9592 193.109C99.2054 192.863 99.4303 192.463 99.6339 191.909L99.9464 191.057L95.9123 180.091H97.7305L100.742 188.784H100.855L103.867 180.091H105.685L101.054 192.591C100.846 193.154 100.588 193.621 100.28 193.99C99.9724 194.364 99.6149 194.641 99.2077 194.821C98.8053 195.001 98.3507 195.091 97.8441 195.091ZM112.642 180.091V181.511H106.988V180.091H112.642ZM108.636 177.477H110.312V187.875C110.312 188.348 110.381 188.704 110.518 188.94C110.66 189.172 110.84 189.329 111.058 189.409C111.28 189.485 111.515 189.523 111.761 189.523C111.946 189.523 112.097 189.513 112.216 189.494C112.334 189.471 112.429 189.452 112.5 189.438L112.841 190.943C112.727 190.986 112.568 191.028 112.365 191.071C112.161 191.118 111.903 191.142 111.591 191.142C111.117 191.142 110.653 191.04 110.199 190.837C109.749 190.633 109.375 190.323 109.076 189.906C108.783 189.49 108.636 188.964 108.636 188.33V177.477ZM115.163 191V180.091H116.839V191H115.163ZM116.015 178.273C115.689 178.273 115.407 178.161 115.17 177.939C114.938 177.716 114.822 177.449 114.822 177.136C114.822 176.824 114.938 176.556 115.17 176.334C115.407 176.111 115.689 176 116.015 176C116.342 176 116.621 176.111 116.853 176.334C117.09 176.556 117.208 176.824 117.208 177.136C117.208 177.449 117.09 177.716 116.853 177.939C116.621 178.161 116.342 178.273 116.015 178.273ZM124.341 191.227C123.318 191.227 122.438 190.986 121.699 190.503C120.96 190.02 120.392 189.355 119.994 188.507C119.597 187.66 119.398 186.691 119.398 185.602C119.398 184.494 119.601 183.517 120.009 182.669C120.42 181.817 120.993 181.152 121.727 180.673C122.466 180.19 123.328 179.949 124.312 179.949C125.08 179.949 125.771 180.091 126.386 180.375C127.002 180.659 127.506 181.057 127.899 181.568C128.292 182.08 128.536 182.676 128.631 183.358H126.955C126.827 182.861 126.543 182.42 126.102 182.037C125.667 181.649 125.08 181.455 124.341 181.455C123.688 181.455 123.115 181.625 122.622 181.966C122.134 182.302 121.753 182.778 121.479 183.393C121.209 184.004 121.074 184.722 121.074 185.545C121.074 186.388 121.206 187.122 121.472 187.747C121.741 188.372 122.12 188.857 122.608 189.203C123.1 189.549 123.678 189.722 124.341 189.722C124.777 189.722 125.172 189.646 125.527 189.494C125.882 189.343 126.183 189.125 126.429 188.841C126.675 188.557 126.85 188.216 126.955 187.818H128.631C128.536 188.462 128.302 189.042 127.928 189.558C127.558 190.07 127.068 190.477 126.457 190.78C125.851 191.078 125.146 191.227 124.341 191.227ZM138.808 182.534L137.303 182.96C137.208 182.709 137.068 182.465 136.884 182.229C136.704 181.987 136.457 181.788 136.145 181.632C135.832 181.476 135.432 181.398 134.945 181.398C134.277 181.398 133.721 181.552 133.276 181.859C132.835 182.162 132.615 182.548 132.615 183.017C132.615 183.434 132.767 183.763 133.07 184.004C133.373 184.246 133.846 184.447 134.49 184.608L136.109 185.006C137.085 185.242 137.812 185.605 138.29 186.092C138.768 186.575 139.007 187.198 139.007 187.96C139.007 188.585 138.827 189.144 138.467 189.636C138.112 190.129 137.615 190.517 136.976 190.801C136.337 191.085 135.593 191.227 134.746 191.227C133.633 191.227 132.712 190.986 131.983 190.503C131.254 190.02 130.792 189.314 130.598 188.386L132.189 187.989C132.34 188.576 132.627 189.016 133.048 189.31C133.474 189.603 134.031 189.75 134.717 189.75C135.499 189.75 136.119 189.584 136.578 189.253C137.042 188.917 137.274 188.514 137.274 188.045C137.274 187.667 137.142 187.349 136.876 187.094C136.611 186.833 136.204 186.639 135.655 186.511L133.837 186.085C132.838 185.848 132.104 185.482 131.635 184.984C131.171 184.482 130.939 183.855 130.939 183.102C130.939 182.487 131.112 181.942 131.457 181.469C131.808 180.995 132.284 180.624 132.885 180.354C133.491 180.084 134.178 179.949 134.945 179.949C136.024 179.949 136.872 180.186 137.487 180.659C138.107 181.133 138.548 181.758 138.808 182.534Z" fill="#797979"/>
<g filter="url(#filter0_di_42_420)">
<rect x="8" y="216" width="253" height="52" rx="8" fill="url(#paint0_linear_42_420)" shape-rendering="crispEdges"/>
<rect x="8.5" y="216.5" width="252" height="51" rx="7.5" stroke="url(#paint1_linear_42_420)" shape-rendering="crispEdges"/>
<path d="M54.179 239.185H51.9631C51.8778 238.711 51.7192 238.295 51.4872 237.935C51.2552 237.575 50.9711 237.269 50.6349 237.018C50.2988 236.768 49.9223 236.578 49.5057 236.45C49.0938 236.322 48.6558 236.259 48.1918 236.259C47.3537 236.259 46.6032 236.469 45.9403 236.891C45.2822 237.312 44.7614 237.93 44.3778 238.744C43.9991 239.559 43.8097 240.553 43.8097 241.727C43.8097 242.911 43.9991 243.91 44.3778 244.724C44.7614 245.539 45.2846 246.154 45.9474 246.571C46.6103 246.988 47.3561 247.196 48.1847 247.196C48.6439 247.196 49.0795 247.134 49.4915 247.011C49.9081 246.884 50.2846 246.696 50.6207 246.45C50.9569 246.204 51.241 245.903 51.473 245.548C51.7098 245.188 51.8731 244.777 51.9631 244.312L54.179 244.32C54.0606 245.035 53.831 245.693 53.4901 246.294C53.1539 246.891 52.7206 247.407 52.1903 247.842C51.6648 248.273 51.0634 248.607 50.3864 248.844C49.7093 249.08 48.9706 249.199 48.1705 249.199C46.911 249.199 45.7888 248.901 44.804 248.304C43.8191 247.703 43.0426 246.843 42.4744 245.726C41.911 244.608 41.6293 243.276 41.6293 241.727C41.6293 240.174 41.9134 238.841 42.4815 237.729C43.0497 236.611 43.8262 235.754 44.8111 235.158C45.7959 234.556 46.9157 234.256 48.1705 234.256C48.9422 234.256 49.6619 234.367 50.3295 234.589C51.0019 234.807 51.6056 235.129 52.1406 235.555C52.6757 235.977 53.1184 236.493 53.4688 237.104C53.8191 237.71 54.0559 238.403 54.179 239.185ZM56.6346 249V238.091H58.6871V239.824H58.8008C58.9996 239.237 59.35 238.775 59.8519 238.439C60.3585 238.098 60.9315 237.928 61.5707 237.928C61.7032 237.928 61.8595 237.932 62.0394 237.942C62.2241 237.951 62.3685 237.963 62.4727 237.977V240.009C62.3874 239.985 62.2359 239.959 62.0181 239.93C61.8003 239.897 61.5825 239.881 61.3647 239.881C60.8628 239.881 60.4154 239.987 60.0224 240.2C59.6341 240.409 59.3263 240.7 59.0991 241.074C58.8718 241.443 58.7582 241.865 58.7582 242.338V249H56.6346ZM68.6214 249.22C67.5466 249.22 66.621 248.991 65.8445 248.531C65.0727 248.067 64.4761 247.416 64.0547 246.578C63.638 245.735 63.4297 244.748 63.4297 243.616C63.4297 242.499 63.638 241.514 64.0547 240.662C64.4761 239.81 65.0632 239.144 65.8161 238.666C66.5736 238.188 67.459 237.949 68.4723 237.949C69.0878 237.949 69.6844 238.051 70.2621 238.254C70.8397 238.458 71.3582 238.777 71.8175 239.213C72.2768 239.649 72.639 240.214 72.9041 240.911C73.1693 241.602 73.3018 242.442 73.3018 243.432V244.185H64.63V242.594H71.2209C71.2209 242.035 71.1072 241.54 70.88 241.109C70.6527 240.674 70.3331 240.33 69.9212 240.08C69.514 239.829 69.0357 239.703 68.4865 239.703C67.8899 239.703 67.3691 239.85 66.924 240.143C66.4837 240.432 66.1428 240.811 65.9013 241.28C65.6645 241.744 65.5462 242.248 65.5462 242.793V244.036C65.5462 244.765 65.674 245.385 65.9297 245.896C66.1901 246.408 66.5523 246.798 67.0163 247.068C67.4804 247.333 68.0225 247.466 68.6428 247.466C69.0452 247.466 69.4122 247.409 69.7436 247.295C70.075 247.177 70.3615 247.002 70.603 246.77C70.8445 246.538 71.0291 246.251 71.157 245.911L73.1669 246.273C73.0059 246.865 72.7171 247.383 72.3004 247.828C71.8885 248.268 71.37 248.612 70.745 248.858C70.1248 249.099 69.4169 249.22 68.6214 249.22ZM78.8327 249.241C78.1415 249.241 77.5165 249.114 76.9577 248.858C76.399 248.598 75.9563 248.221 75.6296 247.729C75.3076 247.236 75.1467 246.633 75.1467 245.918C75.1467 245.302 75.265 244.795 75.5018 244.398C75.7385 244 76.0581 243.685 76.4606 243.453C76.863 243.221 77.3129 243.046 77.81 242.928C78.3072 242.809 78.8138 242.719 79.3299 242.658C79.9833 242.582 80.5136 242.52 80.9208 242.473C81.328 242.421 81.6239 242.338 81.8086 242.224C81.9933 242.111 82.0856 241.926 82.0856 241.67V241.621C82.0856 241 81.9104 240.52 81.56 240.179C81.2144 239.838 80.6983 239.668 80.0117 239.668C79.2968 239.668 78.7333 239.826 78.3214 240.143C77.9142 240.456 77.6325 240.804 77.4762 241.188L75.4805 240.733C75.7172 240.07 76.0629 239.535 76.5174 239.128C76.9767 238.716 77.5046 238.418 78.1012 238.233C78.6978 238.044 79.3252 237.949 79.9833 237.949C80.4189 237.949 80.8806 238.001 81.3683 238.105C81.8607 238.205 82.32 238.389 82.7461 238.659C83.177 238.929 83.5297 239.315 83.8043 239.817C84.079 240.314 84.2163 240.96 84.2163 241.756V249H82.1424V247.509H82.0572C81.9199 247.783 81.7139 248.053 81.4393 248.318C81.1647 248.583 80.8119 248.804 80.381 248.979C79.9502 249.154 79.4341 249.241 78.8327 249.241ZM79.2944 247.537C79.8815 247.537 80.3834 247.421 80.8001 247.189C81.2215 246.957 81.5411 246.654 81.7589 246.28C81.9814 245.901 82.0927 245.496 82.0927 245.065V243.659C82.0169 243.735 81.8701 243.806 81.6523 243.872C81.4393 243.934 81.1954 243.988 80.9208 244.036C80.6462 244.078 80.3787 244.118 80.1183 244.156C79.8578 244.189 79.64 244.218 79.4648 244.241C79.0529 244.294 78.6765 244.381 78.3356 244.504C77.9994 244.627 77.7295 244.805 77.5259 245.037C77.3271 245.264 77.2276 245.567 77.2276 245.946C77.2276 246.472 77.4218 246.869 77.81 247.139C78.1983 247.404 78.6931 247.537 79.2944 247.537ZM92.1371 238.091V239.795H86.1783V238.091H92.1371ZM87.7763 235.477H89.8999V245.797C89.8999 246.209 89.9614 246.519 90.0845 246.727C90.2076 246.931 90.3662 247.071 90.5604 247.146C90.7592 247.217 90.9747 247.253 91.2067 247.253C91.3771 247.253 91.5263 247.241 91.6541 247.217C91.782 247.194 91.8814 247.175 91.9524 247.161L92.3359 248.915C92.2128 248.962 92.0376 249.009 91.8104 249.057C91.5831 249.109 91.299 249.137 90.9581 249.142C90.3994 249.152 89.8786 249.052 89.3956 248.844C88.9126 248.635 88.522 248.313 88.2237 247.878C87.9254 247.442 87.7763 246.895 87.7763 246.237V235.477ZM99.0707 249.22C97.9959 249.22 97.0702 248.991 96.2937 248.531C95.5219 248.067 94.9253 247.416 94.5039 246.578C94.0872 245.735 93.8789 244.748 93.8789 243.616C93.8789 242.499 94.0872 241.514 94.5039 240.662C94.9253 239.81 95.5124 239.144 96.2653 238.666C97.0228 238.188 97.9083 237.949 98.9215 237.949C99.5371 237.949 100.134 238.051 100.711 238.254C101.289 238.458 101.807 238.777 102.267 239.213C102.726 239.649 103.088 240.214 103.353 240.911C103.618 241.602 103.751 242.442 103.751 243.432V244.185H95.0792V242.594H101.67C101.67 242.035 101.556 241.54 101.329 241.109C101.102 240.674 100.782 240.33 100.37 240.08C99.9632 239.829 99.485 239.703 98.9357 239.703C98.3391 239.703 97.8183 239.85 97.3732 240.143C96.9329 240.432 96.592 240.811 96.3505 241.28C96.1138 241.744 95.9954 242.248 95.9954 242.793V244.036C95.9954 244.765 96.1232 245.385 96.3789 245.896C96.6393 246.408 97.0015 246.798 97.4656 247.068C97.9296 247.333 98.4717 247.466 99.092 247.466C99.4944 247.466 99.8614 247.409 100.193 247.295C100.524 247.177 100.811 247.002 101.052 246.77C101.294 246.538 101.478 246.251 101.606 245.911L103.616 246.273C103.455 246.865 103.166 247.383 102.75 247.828C102.338 248.268 101.819 248.612 101.194 248.858C100.574 249.099 99.8661 249.22 99.0707 249.22ZM113.524 242.523V249H111.4V238.091H113.439V239.866H113.574C113.824 239.289 114.217 238.825 114.752 238.474C115.292 238.124 115.972 237.949 116.791 237.949C117.534 237.949 118.185 238.105 118.744 238.418C119.303 238.725 119.736 239.185 120.044 239.795C120.351 240.406 120.505 241.161 120.505 242.061V249H118.382V242.317C118.382 241.526 118.176 240.908 117.764 240.463C117.352 240.013 116.786 239.788 116.066 239.788C115.574 239.788 115.136 239.895 114.752 240.108C114.374 240.321 114.073 240.634 113.85 241.045C113.633 241.453 113.524 241.945 113.524 242.523ZM128.055 249.22C126.98 249.22 126.055 248.991 125.278 248.531C124.506 248.067 123.91 247.416 123.488 246.578C123.072 245.735 122.863 244.748 122.863 243.616C122.863 242.499 123.072 241.514 123.488 240.662C123.91 239.81 124.497 239.144 125.25 238.666C126.007 238.188 126.893 237.949 127.906 237.949C128.521 237.949 129.118 238.051 129.696 238.254C130.273 238.458 130.792 238.777 131.251 239.213C131.71 239.649 132.073 240.214 132.338 240.911C132.603 241.602 132.735 242.442 132.735 243.432V244.185H124.064V242.594H130.654C130.654 242.035 130.541 241.54 130.314 241.109C130.086 240.674 129.767 240.33 129.355 240.08C128.948 239.829 128.469 239.703 127.92 239.703C127.324 239.703 126.803 239.85 126.358 240.143C125.917 240.432 125.576 240.811 125.335 241.28C125.098 241.744 124.98 242.248 124.98 242.793V244.036C124.98 244.765 125.108 245.385 125.363 245.896C125.624 246.408 125.986 246.798 126.45 247.068C126.914 247.333 127.456 247.466 128.076 247.466C128.479 247.466 128.846 247.409 129.177 247.295C129.509 247.177 129.795 247.002 130.037 246.77C130.278 246.538 130.463 246.251 130.591 245.911L132.6 246.273C132.44 246.865 132.151 247.383 131.734 247.828C131.322 248.268 130.804 248.612 130.179 248.858C129.558 249.099 128.85 249.22 128.055 249.22ZM137.437 249L134.227 238.091H136.422L138.559 246.102H138.666L140.811 238.091H143.005L145.136 246.067H145.243L147.366 238.091H149.561L146.358 249H144.191L141.975 241.124H141.812L139.596 249H137.437ZM161.961 238.091V239.795H156.002V238.091H161.961ZM157.6 235.477H159.724V245.797C159.724 246.209 159.786 246.519 159.909 246.727C160.032 246.931 160.19 247.071 160.385 247.146C160.583 247.217 160.799 247.253 161.031 247.253C161.201 247.253 161.35 247.241 161.478 247.217C161.606 247.194 161.706 247.175 161.777 247.161L162.16 248.915C162.037 248.962 161.862 249.009 161.635 249.057C161.407 249.109 161.123 249.137 160.782 249.142C160.224 249.152 159.703 249.052 159.22 248.844C158.737 248.635 158.346 248.313 158.048 247.878C157.75 247.442 157.6 246.895 157.6 246.237V235.477ZM167.485 249.241C166.794 249.241 166.169 249.114 165.61 248.858C165.051 248.598 164.609 248.221 164.282 247.729C163.96 247.236 163.799 246.633 163.799 245.918C163.799 245.302 163.917 244.795 164.154 244.398C164.391 244 164.71 243.685 165.113 243.453C165.515 243.221 165.965 243.046 166.462 242.928C166.96 242.809 167.466 242.719 167.982 242.658C168.636 242.582 169.166 242.52 169.573 242.473C169.98 242.421 170.276 242.338 170.461 242.224C170.646 242.111 170.738 241.926 170.738 241.67V241.621C170.738 241 170.563 240.52 170.212 240.179C169.867 239.838 169.351 239.668 168.664 239.668C167.949 239.668 167.386 239.826 166.974 240.143C166.567 240.456 166.285 240.804 166.129 241.188L164.133 240.733C164.37 240.07 164.715 239.535 165.17 239.128C165.629 238.716 166.157 238.418 166.754 238.233C167.35 238.044 167.978 237.949 168.636 237.949C169.071 237.949 169.533 238.001 170.021 238.105C170.513 238.205 170.972 238.389 171.398 238.659C171.829 238.929 172.182 239.315 172.457 239.817C172.731 240.314 172.869 240.96 172.869 241.756V249H170.795V247.509H170.71C170.572 247.783 170.366 248.053 170.092 248.318C169.817 248.583 169.464 248.804 169.033 248.979C168.603 249.154 168.086 249.241 167.485 249.241ZM167.947 247.537C168.534 247.537 169.036 247.421 169.452 247.189C169.874 246.957 170.193 246.654 170.411 246.28C170.634 245.901 170.745 245.496 170.745 245.065V243.659C170.669 243.735 170.522 243.806 170.305 243.872C170.092 243.934 169.848 243.988 169.573 244.036C169.299 244.078 169.031 244.118 168.771 244.156C168.51 244.189 168.292 244.218 168.117 244.241C167.705 244.294 167.329 244.381 166.988 244.504C166.652 244.627 166.382 244.805 166.178 245.037C165.979 245.264 165.88 245.567 165.88 245.946C165.88 246.472 166.074 246.869 166.462 247.139C166.851 247.404 167.345 247.537 167.947 247.537ZM183.872 240.754L181.947 241.095C181.867 240.849 181.739 240.615 181.564 240.392C181.393 240.17 181.161 239.987 180.868 239.845C180.574 239.703 180.207 239.632 179.767 239.632C179.165 239.632 178.663 239.767 178.261 240.037C177.859 240.302 177.657 240.645 177.657 241.067C177.657 241.431 177.792 241.725 178.062 241.947C178.332 242.17 178.768 242.352 179.369 242.494L181.102 242.892C182.106 243.124 182.854 243.482 183.346 243.964C183.839 244.447 184.085 245.075 184.085 245.847C184.085 246.5 183.895 247.082 183.517 247.594C183.143 248.1 182.619 248.498 181.947 248.787C181.279 249.076 180.505 249.22 179.625 249.22C178.403 249.22 177.406 248.96 176.635 248.439C175.863 247.913 175.389 247.168 175.214 246.202L177.267 245.889C177.395 246.424 177.657 246.829 178.055 247.104C178.453 247.374 178.971 247.509 179.61 247.509C180.306 247.509 180.863 247.364 181.279 247.075C181.696 246.782 181.904 246.424 181.904 246.003C181.904 245.662 181.777 245.375 181.521 245.143C181.27 244.911 180.884 244.736 180.363 244.618L178.517 244.213C177.499 243.981 176.746 243.612 176.258 243.105C175.775 242.598 175.534 241.957 175.534 241.18C175.534 240.536 175.714 239.973 176.074 239.49C176.433 239.007 176.931 238.631 177.565 238.361C178.199 238.086 178.926 237.949 179.745 237.949C180.924 237.949 181.852 238.205 182.529 238.716C183.207 239.223 183.654 239.902 183.872 240.754ZM188.373 245.3L188.359 242.707H188.728L193.075 238.091H195.617L190.66 243.347H190.326L188.373 245.3ZM186.42 249V234.455H188.543V249H186.42ZM193.309 249L189.403 243.815L190.866 242.331L195.915 249H193.309Z" fill="white"/>
<path fill-rule="evenodd" clip-rule="evenodd" d="M216.5 231.25C210.563 231.25 205.75 236.063 205.75 242C205.75 247.937 210.563 252.75 216.5 252.75C222.437 252.75 227.25 247.937 227.25 242C227.25 236.063 222.437 231.25 216.5 231.25ZM217.25 238C217.25 237.586 216.914 237.25 216.5 237.25C216.086 237.25 215.75 237.586 215.75 238V241.25H212.5C212.086 241.25 211.75 241.586 211.75 242C211.75 242.414 212.086 242.75 212.5 242.75H215.75V246C215.75 246.414 216.086 246.75 216.5 246.75C216.914 246.75 217.25 246.414 217.25 246V242.75H220.5C220.914 242.75 221.25 242.414 221.25 242C221.25 241.586 220.914 241.25 220.5 241.25H217.25V238Z" fill="white"/>
</g>
<defs>
<filter id="filter0_di_42_420" x="0" y="209" width="269" height="71" filterUnits="userSpaceOnUse" color-interpolation-filters="sRGB">
<feFlood flood-opacity="0" result="BackgroundImageFix"/>
<feColorMatrix in="SourceAlpha" type="matrix" values="0 0 0 0 0 0 0 0 0 0 0 0 0 0 0 0 0 0 127 0" result="hardAlpha"/>
<feOffset dy="1"/>
<feGaussianBlur stdDeviation="4"/>
<feComposite in2="hardAlpha" operator="out"/>
<feColorMatrix type="matrix" values="0 0 0 0 0 0 0 0 0 0 0 0 0 0 0 0 0 0 0.25 0"/>
<feBlend mode="normal" in2="BackgroundImageFix" result="effect1_dropShadow_42_420"/>
<feBlend mode="normal" in="SourceGraphic" in2="effect1_dropShadow_42_420" result="shape"/>
<feColorMatrix in="SourceAlpha" type="matrix" values="0 0 0 0 0 0 0 0 0 0 0 0 0 0 0 0 0 0 127 0" result="hardAlpha"/>
<feOffset dy="12"/>
<feGaussianBlur stdDeviation="8"/>
<feComposite in2="hardAlpha" operator="arithmetic" k2="-1" k3="1"/>
<feColorMatrix type="matrix" values="0 0 0 0 0.728333 0 0 0 0 0.728333 0 0 0 0 0.728333 0 0 0 0.2 0"/>
<feBlend mode="normal" in2="shape" result="effect2_innerShadow_42_420"/>
</filter>
<linearGradient id="paint0_linear_42_420" x1="134.5" y1="216" x2="134.5" y2="268" gradientUnits="userSpaceOnUse">
<stop stop-color="#4C38C2"/>
<stop offset="1" stop-color="#2F2188"/>
</linearGradient>
<linearGradient id="paint1_linear_42_420" x1="134.5" y1="268" x2="134.5" y2="212" gradientUnits="userSpaceOnUse">
<stop stop-color="#4B36CC"/>
<stop offset="1" stop-color="#9C93D4"/>
</linearGradient>
</defs>
</svg>
